<svg width="600" height="600" viewBox="0 0 600 600" fill="none" xmlns="http://www.w3.org/2000/svg">
<path d="M86 91C86 84.3726 91.3726 79 98 79H514C520.627 79 526 84.3726 526 91V462C526 468.627 520.627 474 514 474H98C91.3726 474 86 468.627 86 462V91Z" fill="white"/>
<path d="M335 550C335 566.569 321.569 580 305 580C288.431 580 275 566.569 275 550C275 533.431 288.431 520 305 520C321.569 520 335 533.431 335 550Z" fill="white"/>
<path fill-rule="evenodd" clip-rule="evenodd" d="M310 471H300V520.415C285.811 522.795 275 535.135 275 550C275 566.569 288.431 580 305 580C321.569 580 335 566.569 335 550C335 535.135 324.189 522.795 310 520.415V471ZM325 550C325 561.046 316.046 570 305 570C293.954 570 285 561.046 285 550C285 538.954 293.954 530 305 530C316.046 530 325 538.954 325 550Z" fill="#05060F"/>
<path d="M71 50C62.1634 50 55 57.1634 55 66V78C55 86.8366 62.1634 94 71 94H541C549.837 94 557 86.8366 557 78V66C557 57.1634 549.837 50 541 50H71Z" fill="#7657FF"/>
<path d="M81 437C72.1634 437 65 444.163 65 453V465C65 473.837 72.1635 481 81 481H541C549.837 481 557 473.837 557 465V453C557 444.163 549.837 437 541 437H81Z" fill="#7657FF"/>
<path fill-rule="evenodd" clip-rule="evenodd" d="M71 50C62.1634 50 55 57.1634 55 66V78C55 86.8366 62.1634 94 71 94H86V437H81C72.1634 437 65 444.163 65 453V465C65 473.837 72.1635 481 81 481H541C549.837 481 557 473.837 557 465V453C557 444.163 549.837 437 541 437H526V94H541C549.837 94 557 86.8366 557 78V66C557 57.1634 549.837 50 541 50H71ZM541 60H71C67.6863 60 65 62.6863 65 66V78C65 81.3137 67.6863 84 71 84H541C544.314 84 547 81.3137 547 78V66C547 62.6863 544.314 60 541 60ZM516 94H96V437H516V94ZM541 447H81C77.6863 447 75 449.686 75 453V465C75 468.314 77.6863 471 81 471H541C544.314 471 547 468.314 547 465V453C547 449.686 544.314 447 541 447Z" fill="#05060F"/>
<path fill-rule="evenodd" clip-rule="evenodd" d="M410.936 162C413.697 162 415.936 164.239 415.936 167V244.245C415.936 251.977 409.668 258.245 401.936 258.245H210C207.791 258.245 206 260.036 206 262.245V334C206 336.209 207.791 338 210 338H442C444.761 338 447 340.239 447 343C447 345.761 444.761 348 442 348H210C202.268 348 196 341.732 196 334V262.245C196 254.513 202.268 248.245 210 248.245H401.936C404.145 248.245 405.936 246.454 405.936 244.245V167C405.936 164.239 408.174 162 410.936 162Z" fill="#05060F"/>
<path fill-rule="evenodd" clip-rule="evenodd" d="M224.84 174H218V164H224.84C227.57 164 229.783 166.239 229.783 169C229.783 171.761 227.57 174 224.84 174ZM241.394 169C241.394 166.239 243.607 164 246.336 164H260.016C262.746 164 264.959 166.239 264.959 169C264.959 171.761 262.746 174 260.016 174H246.336C243.607 174 241.394 171.761 241.394 169ZM276.57 169C276.57 166.239 278.783 164 281.513 164H295.192C297.922 164 300.135 166.239 300.135 169C300.135 171.761 297.922 174 295.192 174H281.513C278.783 174 276.57 171.761 276.57 169ZM311.746 169C311.746 166.239 313.959 164 316.689 164H330.368C333.098 164 335.311 166.239 335.311 169C335.311 171.761 333.098 174 330.368 174H316.689C313.959 174 311.746 171.761 311.746 169ZM346.922 169C346.922 166.239 349.135 164 351.865 164H365.545C368.274 164 370.487 166.239 370.487 169C370.487 171.761 368.274 174 365.545 174H351.865C349.135 174 346.922 171.761 346.922 169ZM382.098 169C382.098 166.239 384.311 164 387.041 164H400.721C403.451 164 405.664 166.239 405.664 169C405.664 171.761 403.451 174 400.721 174H387.041C384.311 174 382.098 171.761 382.098 169ZM417.275 169C417.275 166.239 419.488 164 422.217 164H429.057C431.787 164 434 166.239 434 169C434 171.761 431.787 174 429.057 174H422.217C419.488 174 417.275 171.761 417.275 169Z" fill="#05060F"/>
<path d="M241 375.143C241 378.93 237.93 382 234.143 382L167.857 382C164.07 382 161 378.93 161 375.143L161 308.857C161 305.07 164.07 302 167.857 302L234.143 302C237.93 302 241 305.07 241 308.857L241 375.143Z" fill="#2187FF"/>
<path fill-rule="evenodd" clip-rule="evenodd" d="M234.143 377C235.169 377 236 376.169 236 375.143L236 308.857C236 307.831 235.169 307 234.143 307L167.857 307C166.831 307 166 307.831 166 308.857L166 375.143C166 376.169 166.831 377 167.857 377L234.143 377ZM246 375.143C246 381.691 240.691 387 234.143 387L167.857 387C161.309 387 156 381.691 156 375.143L156 308.857C156 302.309 161.309 297 167.857 297L234.143 297C240.691 297 246 302.309 246 308.857L246 375.143Z" fill="#05060F"/>
<path d="M451 203.143C451 206.93 447.93 210 444.143 210L377.857 210C374.07 210 371 206.93 371 203.143L371 136.857C371 133.07 374.07 130 377.857 130L444.143 130C447.93 130 451 133.07 451 136.857L451 203.143Z" fill="#DB2323"/>
<path fill-rule="evenodd" clip-rule="evenodd" d="M444.143 205C445.169 205 446 204.169 446 203.143L446 136.857C446 135.832 445.169 135 444.143 135L377.857 135C376.832 135 376 135.832 376 136.857L376 203.143C376 204.169 376.832 205 377.857 205L444.143 205ZM456 203.143C456 209.691 450.691 215 444.143 215L377.857 215C371.309 215 366 209.691 366 203.143L366 136.857C366 130.309 371.309 125 377.857 125L444.143 125C450.691 125 456 130.309 456 136.857L456 203.143Z" fill="#05060F"/>
<path d="M161 136.857C161 133.07 164.07 130 167.857 130H234.143C237.93 130 241 133.07 241 136.857V203.143C241 206.93 237.93 210 234.143 210H167.857C164.07 210 161 206.93 161 203.143V136.857Z" fill="#15D6CF"/>
<path fill-rule="evenodd" clip-rule="evenodd" d="M167.857 135C166.831 135 166 135.831 166 136.857V203.143C166 204.169 166.831 205 167.857 205H234.143C235.169 205 236 204.169 236 203.143V136.857C236 135.831 235.169 135 234.143 135H167.857ZM156 136.857C156 130.309 161.309 125 167.857 125L234.143 125C240.691 125 246 130.309 246 136.857V203.143C246 209.691 240.691 215 234.143 215H167.857C161.309 215 156 209.691 156 203.143V136.857Z" fill="#05060F"/>
<path fill-rule="evenodd" clip-rule="evenodd" d="M412.725 304.854C395.311 304.854 377.545 318.707 377.545 339.185C377.545 351.728 385.376 360.769 391.31 365.858C394.967 368.994 397.758 373.603 397.758 376.605L397.767 380.261C397.771 381.484 398.759 382.473 399.978 382.473H425.857C427.075 382.473 428.064 381.484 428.067 380.262L428.077 376.606C428.077 373.603 431.126 368.986 434.783 365.81C440.654 360.711 448.29 351.712 448.29 339.185C448.29 317.693 429.948 304.854 412.725 304.854Z" fill="#F8DB46"/>
<path d="M399.113 390.014C398.381 390.014 397.788 390.608 397.787 391.342L397.783 393.531C397.772 398.443 401.737 402.433 406.633 402.433H419.201C424.098 402.433 428.062 398.443 428.051 393.531L428.047 391.342C428.046 390.608 427.452 390.014 426.721 390.014H399.113Z" fill="#3F96FC"/>
<path d="M412.365 271C409.622 271 407.398 273.208 407.398 275.932V284.57C407.398 287.294 409.622 289.502 412.365 289.502C415.109 289.502 417.333 287.294 417.333 284.57V275.932C417.333 273.208 415.109 271 412.365 271Z" fill="#05060F"/>
<path d="M457.545 286.236C455.605 284.309 452.46 284.309 450.52 286.236L444.014 292.696C442.074 294.622 442.074 297.745 444.014 299.671C445.954 301.597 449.099 301.597 451.039 299.671L457.545 293.211C459.485 291.285 459.485 288.162 457.545 286.236Z" fill="#05060F"/>
<path d="M366.455 287.324C368.379 285.414 371.487 285.398 373.431 287.276L379.796 292.611C379.828 292.638 379.859 292.666 379.889 292.696C381.828 294.622 381.828 297.745 379.889 299.671C377.965 301.581 374.856 301.597 372.913 299.719L366.548 294.384C366.516 294.357 366.485 294.329 366.455 294.299C364.515 292.373 364.515 289.25 366.455 287.324Z" fill="#05060F"/>
<path d="M412.366 329.311C411.003 329.311 409.719 329.846 408.792 330.885C407.873 331.915 407.399 333.328 407.399 334.949V353.923C407.399 355.543 407.873 356.957 408.792 357.986C409.719 359.025 411.003 359.56 412.366 359.56C413.73 359.56 415.014 359.025 415.941 357.986C416.86 356.957 417.334 355.543 417.334 353.923V334.949C417.334 333.328 416.86 331.915 415.941 330.885C415.014 329.846 413.73 329.311 412.366 329.311Z" fill="#05060F"/>
<path fill-rule="evenodd" clip-rule="evenodd" d="M412.174 296.468C390.893 296.468 368.598 313.226 368.598 338.894C368.598 354.995 378.685 366.082 385.291 371.707C386.422 372.671 387.449 373.899 388.144 375.046C388.485 375.609 388.68 376.044 388.776 376.311L388.788 376.347L388.797 379.655C388.802 381.716 389.403 383.644 390.439 385.273C389.417 386.804 388.82 388.641 388.817 390.608L388.813 392.779C388.794 402.252 396.502 410 406.09 410H418.643C428.232 410 435.941 402.25 435.92 392.776L435.915 390.608C435.912 388.64 435.315 386.804 434.293 385.272C435.328 383.644 435.929 381.716 435.935 379.656L435.943 376.456C436.047 376.193 436.256 375.763 436.616 375.199C437.38 374 438.511 372.684 439.739 371.625C446.323 365.947 456.134 354.91 456.134 338.894C456.134 311.928 432.934 296.468 412.174 296.468ZM378.532 338.894C378.532 319.534 395.471 306.333 412.174 306.333C428.744 306.333 446.199 318.58 446.199 338.894C446.199 350.681 438.96 359.231 433.224 364.177C431.291 365.844 429.52 367.886 428.221 369.923C426.954 371.912 426.011 374.092 426.01 376.005V376.008L426 379.63C425.999 380.027 425.677 380.34 425.29 380.34H399.441C399.054 380.34 398.732 380.027 398.731 379.63L398.722 376.008C398.722 374.125 397.868 371.96 396.657 369.961C395.422 367.923 393.708 365.879 391.758 364.219C385.952 359.275 378.532 350.685 378.532 338.894ZM398.747 392.797L398.751 390.794H425.981L425.985 392.797C425.994 396.851 422.7 400.136 418.643 400.136H406.09C402.033 400.136 398.739 396.851 398.747 392.797Z" fill="#05060F"/>
<path fill-rule="evenodd" clip-rule="evenodd" d="M37.161 465.947C51.5454 444.885 77.0209 429.044 119.5 429.044C161.979 429.044 187.455 444.885 201.839 465.947C215.741 486.303 217.956 509.634 218 522.544C218.044 535.526 207.682 544 197.059 544H41.9412C31.3176 544 20.9557 535.526 21.0001 522.544C21.0444 509.634 23.2586 486.303 37.161 465.947Z" fill="#F8DB46"/>
<path fill-rule="evenodd" clip-rule="evenodd" d="M33.032 463.127C48.4754 440.515 75.608 424.044 119.5 424.044C163.392 424.044 190.525 440.515 205.968 463.127C220.694 484.689 222.954 509.206 223 522.527C223.055 538.503 210.22 549 197.059 549H41.9412C28.7803 549 15.9455 538.503 16.0002 522.527C16.0458 509.206 18.3058 484.689 33.032 463.127ZM119.5 434.044C78.4338 434.044 54.6155 449.256 41.2899 468.767C28.2115 487.916 26.0429 510.062 26.0001 522.561C25.9659 532.55 33.855 539 41.9412 539H197.059C205.145 539 213.034 532.55 213 522.561C212.957 510.062 210.789 487.916 197.71 468.767C184.385 449.256 160.566 434.044 119.5 434.044Z" fill="#05060F"/>
<path fill-rule="evenodd" clip-rule="evenodd" d="M119.499 407.755C149.051 407.755 173.007 383.633 173.007 353.877C173.007 324.122 149.051 300 119.499 300C89.9479 300 65.9917 324.122 65.9917 353.877C65.9917 383.633 89.9479 407.755 119.499 407.755Z" fill="#F8DB46"/>
<path fill-rule="evenodd" clip-rule="evenodd" d="M119.499 305C92.7417 305 70.9917 326.851 70.9917 353.877C70.9917 380.904 92.7417 402.755 119.499 402.755C146.257 402.755 168.007 380.904 168.007 353.877C168.007 326.851 146.257 305 119.499 305ZM60.9917 353.877C60.9917 321.393 87.154 295 119.499 295C151.845 295 178.007 321.393 178.007 353.877C178.007 386.362 151.845 412.755 119.499 412.755C87.154 412.755 60.9917 386.362 60.9917 353.877Z" fill="#05060F"/>
</svg>
