<svg width="600" height="600" viewBox="0 0 600 600" fill="none" xmlns="http://www.w3.org/2000/svg">
<mask id="mask0_6139_38938" style="mask-type:alpha" maskUnits="userSpaceOnUse" x="49" y="65" width="236" height="469">
<path d="M284.91 129.277C284.91 93.2193 256.69 65 220.632 65C192.413 65 168.897 83.8128 161.058 108.897C159.491 108.897 157.923 108.897 157.923 108.897C98.3489 107.329 49.749 155.929 49.749 213.935C49.749 242.154 60.7232 268.806 79.536 287.619C62.2909 300.161 49.749 320.541 49.749 342.489C49.749 364.438 60.7232 383.251 76.4006 394.225C73.2651 405.199 70.1296 416.173 70.1296 427.147C70.1296 486.721 118.729 533.753 176.736 533.753C234.742 533.753 283.342 485.154 283.342 427.147V268.806" fill="url(#paint0_linear_6139_38938)"/>
</mask>
<g mask="url(#mask0_6139_38938)">
<path d="M5.73438 61.2275H294.969V217.163H5.73438V61.2275Z" fill="#4EF3ED"/>
<path d="M5.73438 217.163H294.969V373.098H5.73438V217.163Z" fill="#3F96FC"/>
<path d="M5.73438 370.583H294.969V535.321H5.73438V370.583Z" fill="#0D5EBF"/>
</g>
<path fill-rule="evenodd" clip-rule="evenodd" d="M157.494 103.885C166.98 78.5904 191.46 60 220.631 60C259.612 60 288.341 90.6218 288.341 129.277V427.147C288.341 487.915 237.502 538.753 176.735 538.753C116.015 538.753 65.1286 489.53 65.1286 427.147C65.1286 416.547 67.8465 406.058 70.6438 396.178C55.251 384.094 44.748 364.775 44.748 342.489C44.748 320.629 56.1513 300.507 72.1332 287.067C54.7285 267.616 44.748 241.453 44.748 213.935C44.748 153.327 95.3346 102.56 157.494 103.885ZM220.631 70C194.702 70 173.047 87.2916 165.83 110.388L164.733 113.897H157.856L157.79 113.895C101.057 112.402 54.748 158.712 54.748 213.935C54.748 240.878 65.2299 266.242 83.0706 284.083L87.2082 288.221L82.4759 291.662C66.264 303.453 54.748 322.438 54.748 342.489C54.748 362.732 64.8645 380.047 79.2669 390.129L82.1861 392.172L81.2072 395.598C78.0323 406.711 75.1286 416.997 75.1286 427.147C75.1286 483.912 121.442 528.753 176.735 528.753C231.98 528.753 278.341 482.392 278.341 427.147V129.277C278.341 95.8168 253.767 70 220.631 70Z" fill="#05060F"/>
<mask id="mask1_6139_38938" style="mask-type:alpha" maskUnits="userSpaceOnUse" x="315" y="65" width="236" height="469">
<path d="M315.09 129.277C315.09 93.2193 343.31 65 379.368 65C407.587 65 431.103 83.8128 438.942 108.897C440.509 108.897 442.077 108.897 442.077 108.897C501.651 107.329 550.251 155.929 550.251 213.935C550.251 242.154 539.277 268.806 520.464 287.619C537.709 300.161 550.251 320.541 550.251 342.489C550.251 364.438 539.277 383.251 523.599 394.225C526.735 405.199 529.87 416.173 529.87 427.147C529.87 486.721 481.271 533.753 423.264 533.753C365.258 533.753 316.658 485.154 316.658 427.147V268.806" fill="url(#paint1_linear_6139_38938)"/>
</mask>
<g mask="url(#mask1_6139_38938)">
<path d="M594.266 61.2275H305.031V217.163H594.266V61.2275Z" fill="#4EF3ED"/>
<path d="M594.266 217.163H305.031V373.098H594.266V217.163Z" fill="#3F96FC"/>
<path d="M594.266 370.583H305.031V535.321H594.266V370.583Z" fill="#0D5EBF"/>
</g>
<path fill-rule="evenodd" clip-rule="evenodd" d="M442.506 103.885C433.02 78.5904 408.54 60 379.369 60C340.388 60 311.659 90.6218 311.659 129.277V427.147C311.659 487.915 362.498 538.753 423.265 538.753C483.985 538.753 534.871 489.53 534.871 427.147C534.871 416.547 532.153 406.058 529.356 396.178C544.749 384.094 555.252 364.775 555.252 342.489C555.252 320.629 543.849 300.507 527.867 287.067C545.271 267.616 555.252 241.453 555.252 213.935C555.252 153.327 504.665 102.56 442.506 103.885ZM379.369 70C405.298 70 426.953 87.2916 434.17 110.388L435.267 113.897H442.144L442.21 113.895C498.943 112.402 545.252 158.712 545.252 213.935C545.252 240.878 534.77 266.242 516.929 284.083L512.792 288.221L517.524 291.662C533.736 303.453 545.252 322.438 545.252 342.489C545.252 362.732 535.136 380.047 520.733 390.129L517.814 392.172L518.793 395.598C521.968 406.711 524.871 416.997 524.871 427.147C524.871 483.912 478.558 528.753 423.265 528.753C368.02 528.753 321.659 482.392 321.659 427.147V129.277C321.659 95.8168 346.233 70 379.369 70Z" fill="#05060F"/>
<path fill-rule="evenodd" clip-rule="evenodd" d="M179.557 249.943C180.693 252.46 179.574 255.421 177.057 256.557C164.655 262.154 154.748 277.365 152.143 294.621C149.567 311.676 154.337 329.294 169.384 339.915C171.64 341.507 172.177 344.627 170.585 346.883C168.992 349.139 165.873 349.677 163.617 348.085C148.9 337.697 142.366 322.182 141.571 306.545C127.969 308.416 112.751 307.298 98.8717 302.641C83.0161 297.322 68.521 287.234 60.5288 271.263C59.293 268.794 60.293 265.79 62.7625 264.554C65.2319 263.318 68.2356 264.318 69.4715 266.788C75.9792 279.792 87.9841 288.441 102.052 293.161C114.978 297.497 129.319 298.39 141.841 296.397C141.953 295.302 142.091 294.212 142.255 293.128C145.198 273.635 156.541 254.845 172.943 247.442C175.46 246.306 178.421 247.426 179.557 249.943Z" fill="#05060F"/>
<path fill-rule="evenodd" clip-rule="evenodd" d="M422.433 248.965C421.309 251.487 422.443 254.443 424.965 255.567C437.242 261.037 447.032 275.889 449.606 292.72C452.149 309.347 447.446 326.527 432.564 336.898C430.298 338.476 429.742 341.593 431.32 343.858C432.899 346.124 436.016 346.681 438.281 345.102C452.853 334.947 459.351 319.778 460.164 304.474C473.631 306.296 488.693 305.2 502.432 300.65C518.138 295.448 532.522 285.575 540.46 269.916C541.708 267.453 540.724 264.444 538.261 263.196C535.798 261.947 532.789 262.932 531.54 265.395C525.11 278.08 513.235 286.537 499.288 291.157C486.492 295.395 472.295 296.271 459.894 294.329C459.784 293.284 459.649 292.243 459.491 291.209C456.567 272.089 445.3 253.68 429.035 246.433C426.512 245.309 423.557 246.442 422.433 248.965Z" fill="#05060F"/>
<path d="M230 300C230 327.614 207.614 350 180 350C152.386 350 130 327.614 130 300C130 272.386 152.386 250 180 250C207.614 250 230 272.386 230 300Z" fill="#F8DB46"/>
<path fill-rule="evenodd" clip-rule="evenodd" d="M180 255C155.147 255 135 275.147 135 300C135 324.853 155.147 345 180 345C204.853 345 225 324.853 225 300C225 275.147 204.853 255 180 255ZM125 300C125 269.624 149.624 245 180 245C210.376 245 235 269.624 235 300C235 330.376 210.376 355 180 355C149.624 355 125 330.376 125 300Z" fill="#05060F"/>
<path d="M517 127C517 149.091 499.091 167 477 167C454.909 167 437 149.091 437 127C437 104.909 454.909 87 477 87C499.091 87 517 104.909 517 127Z" fill="#FF3D9A"/>
<path fill-rule="evenodd" clip-rule="evenodd" d="M477 92C457.67 92 442 107.67 442 127C442 146.33 457.67 162 477 162C496.33 162 512 146.33 512 127C512 107.67 496.33 92 477 92ZM432 127C432 102.147 452.147 82 477 82C501.853 82 522 102.147 522 127C522 151.853 501.853 172 477 172C452.147 172 432 151.853 432 127Z" fill="#05060F"/>
<path d="M379 486.5C379 508.315 361.315 526 339.5 526C317.685 526 300 508.315 300 486.5C300 464.685 317.685 447 339.5 447C361.315 447 379 464.685 379 486.5Z" fill="#4EF3ED"/>
<path fill-rule="evenodd" clip-rule="evenodd" d="M339.5 452C320.446 452 305 467.446 305 486.5C305 505.554 320.446 521 339.5 521C358.554 521 374 505.554 374 486.5C374 467.446 358.554 452 339.5 452ZM295 486.5C295 461.923 314.923 442 339.5 442C364.077 442 384 461.923 384 486.5C384 511.077 364.077 531 339.5 531C314.923 531 295 511.077 295 486.5Z" fill="#05060F"/>
<defs>
<linearGradient id="paint0_linear_6139_38938" x1="167.329" y1="65" x2="167.329" y2="533.753" gradientUnits="userSpaceOnUse">
<stop stop-color="#1A80F8"/>
<stop offset="1" stop-color="#0E60C0"/>
</linearGradient>
<linearGradient id="paint1_linear_6139_38938" x1="432.671" y1="65" x2="432.671" y2="533.753" gradientUnits="userSpaceOnUse">
<stop stop-color="#1A80F8"/>
<stop offset="1" stop-color="#0E60C0"/>
</linearGradient>
</defs>
</svg>
