<svg width="600" height="600" viewBox="0 0 600 600" fill="none" xmlns="http://www.w3.org/2000/svg">
<path d="M469.046 173.259C573.735 294.889 510.291 467.405 412.766 467.405C332.731 467.405 247.886 517.958 127.152 518C127.052 518 126.958 517.987 126.863 517.958C91.4809 506.975 21.6973 433.573 105.901 397.865C106.375 397.664 106.964 397.862 107.206 398.317C125.638 433.086 122.202 443.478 209.5 432C299.615 420.151 328.463 318.977 303.915 243.068C290.511 201.619 229.344 155.11 168.854 172.662C155.365 176.576 141.29 165.01 150.802 154.676C218.462 81.1783 391.435 83.0901 469.046 173.259Z" fill="#E0EDFE"/>
<path fill-rule="evenodd" clip-rule="evenodd" d="M306.4 97.5969C368.743 100.198 432.874 123.57 472.835 169.997C526.32 232.137 536.922 307.382 521.579 367.186C506.333 426.611 464.791 472.405 412.765 472.405C377.556 472.405 341.344 482.399 300.518 493.666C295.918 494.935 291.26 496.221 286.537 497.51C240.15 510.176 188.22 522.979 127.153 523C126.597 523 125.998 522.925 125.38 522.733L126.862 517.958L125.38 522.733C115.647 519.712 104.045 512.607 93.5148 503.334C82.9451 494.026 73.0461 482.177 67.0099 469.306C60.9659 456.419 58.6179 442.072 64.0233 428.32C69.4267 414.574 82.1526 402.505 103.948 393.262C106.718 392.088 110.12 393.14 111.623 395.975C113.327 399.19 114.799 402.096 116.143 404.75C118.605 409.612 120.64 413.631 122.901 417.169C126.19 422.314 129.544 425.696 134.564 427.934C139.784 430.262 147.277 431.563 159.24 431.469C171.163 431.375 187.069 429.906 208.848 427.043C251.866 421.387 280.269 394.518 295.104 359.602C310.008 324.524 311.088 281.499 299.157 244.607C292.911 225.29 275.221 204.179 251.482 190.035C227.838 175.948 198.854 169.163 170.247 177.464C161.88 179.892 153.163 177.609 147.817 172.692C145.101 170.193 143.039 166.792 142.728 162.784C142.409 158.686 143.978 154.706 147.123 151.29C182.307 113.07 244.154 94.9999 306.4 97.5969ZM305.984 107.588C245.425 105.062 186.957 122.784 154.481 158.063C152.869 159.813 152.631 161.154 152.697 162.009C152.771 162.953 153.288 164.137 154.587 165.332C157.273 167.802 162.338 169.346 167.46 167.86C199.343 158.609 231.187 166.303 256.601 181.444C281.919 196.529 301.515 219.397 308.672 241.53C321.29 280.547 320.219 326.063 304.308 363.512C288.328 401.122 257.249 430.765 210.151 436.957C188.281 439.833 171.879 441.37 159.319 441.469C146.797 441.567 137.629 440.25 130.492 437.068C123.155 433.797 118.455 428.779 114.476 422.555C111.953 418.608 109.538 413.847 106.903 408.649C106.126 407.117 105.329 405.546 104.505 403.947C86.4204 412.266 77.1878 422.165 73.3302 431.979C69.2435 442.376 70.7645 453.761 76.0637 465.06C81.3707 476.376 90.2889 487.169 100.123 495.829C109.762 504.316 119.892 510.416 127.771 512.999C187.17 512.892 237.837 500.441 283.904 487.863C288.635 486.572 293.325 485.276 297.975 483.991C338.521 472.79 376.111 462.405 412.765 462.405C458.265 462.405 497.207 421.941 511.893 364.701C526.481 307.839 516.46 236.011 465.256 176.521C427.606 132.779 366.445 110.111 305.984 107.588Z" fill="#05060F"/>
<path d="M469.092 132.16C603.034 263.284 517.033 532 419.62 532L117 532C73.1671 532 21.7014 411.77 105.901 375.64C106.418 375.419 107.04 375.666 107.248 376.188C127.98 428.204 187.658 454.868 285.5 423C360.843 398.46 387.868 333.694 387.868 280.157C386.696 268.741 387.849 230.523 334.044 226.707C333.389 226.66 332.924 225.993 333.14 225.373C342.256 199.256 358.795 198.085 376.436 200.296C377.164 200.387 377.743 199.69 377.513 198.993C368.416 171.434 352.313 155.867 342 148.5C275.042 100.673 203.777 139.159 164.033 173.116C155.933 180.037 139.636 172.265 143.217 162.231C185.739 43.0918 356.207 21.6504 469.092 132.16Z" fill="#2187FF"/>
<path fill-rule="evenodd" clip-rule="evenodd" d="M279.252 56.1039C342.839 49.5047 415.131 72.3378 472.59 128.588C541.215 195.769 553.14 297.73 536.014 382.244C527.437 424.575 511.502 462.96 491.335 490.891C471.287 518.659 446.342 537 419.62 537L117 537C103.823 537 91.1099 528.109 81.0615 515.814C70.8664 503.339 62.6312 486.464 58.5614 468.472C54.4915 450.479 54.5107 431.011 61.2867 413.509C68.1145 395.872 81.6736 380.595 103.929 371.045C106.951 369.749 110.612 371.123 111.893 374.337C121.706 398.958 140.654 417.54 168.933 426.273C197.371 435.055 235.641 433.981 283.951 418.246C356.595 394.585 382.785 332.337 382.868 280.405C382.784 279.544 382.71 278.599 382.63 277.585C382.125 271.133 381.398 261.844 376.358 253.073C370.742 243.299 359.232 233.506 333.69 231.694C329.947 231.429 327.053 227.64 328.419 223.725C333.297 209.751 340.493 201.62 349.583 197.633C356.32 194.677 363.596 194.242 370.654 194.704C361.743 171.978 347.976 158.914 339.094 152.569C306.999 129.644 274.007 127.398 244.038 134.986C213.889 142.62 186.814 160.229 167.28 176.918C161.206 182.108 152.774 181.402 146.999 178.499C141.25 175.609 135.499 168.981 138.508 160.55C160.526 98.8599 215.642 62.7056 279.252 56.1039ZM280.284 66.0505C219.809 72.3268 168.43 106.463 147.926 163.912C147.354 165.514 147.961 167.79 151.49 169.564C154.993 171.325 158.759 171.045 160.785 169.315C180.996 152.047 209.425 133.434 241.584 125.292C273.923 117.104 310.042 119.529 344.906 144.431C355.913 152.294 372.771 168.677 382.261 197.426C383.655 201.649 380.146 205.8 375.814 205.257C367.128 204.168 359.757 204.089 353.6 206.79C348.567 208.998 343.708 213.368 339.753 222.227C364.561 225.195 377.969 235.804 385.029 248.091C391.312 259.027 392.178 270.854 392.639 277.15C392.71 278.122 392.772 278.962 392.842 279.647C392.859 279.816 392.868 279.987 392.868 280.157C392.868 335.25 364.976 402.372 287.048 427.754C237.517 443.887 197.027 445.415 165.982 435.828C136.26 426.649 115.563 407.38 104.228 381.896C86.5953 390.429 76.0793 402.997 70.6122 417.119C64.7266 432.321 64.5644 449.685 68.315 466.266C72.0657 482.847 79.6531 498.288 88.8046 509.485C98.1027 520.863 108.261 527 117 527L419.62 527C441.605 527 463.94 511.751 483.228 485.037C502.398 458.487 517.857 421.497 526.213 380.258C542.956 297.634 530.911 199.675 465.594 135.733C410.168 81.4731 340.784 59.7717 280.284 66.0505Z" fill="#05060F"/>
<path d="M453 553.061C508.285 553.061 553.102 508.038 553.102 452.5C553.102 396.962 508.285 351.939 453 351.939C397.715 351.939 352.898 396.962 352.898 452.5C352.898 508.038 397.715 553.061 453 553.061Z" fill="white"/>
<path fill-rule="evenodd" clip-rule="evenodd" d="M453 356.939C400.498 356.939 357.898 399.701 357.898 452.5C357.898 505.299 400.498 548.061 453 548.061C505.502 548.061 548.102 505.299 548.102 452.5C548.102 399.701 505.502 356.939 453 356.939ZM347.898 452.5C347.898 394.222 394.932 346.939 453 346.939C511.068 346.939 558.102 394.222 558.102 452.5C558.102 510.778 511.068 558.061 453 558.061C394.932 558.061 347.898 510.778 347.898 452.5Z" fill="#05060F"/>
<path d="M412.517 455.482C414.862 453.126 418.676 453.126 421.022 455.482L435.952 470.482L484.918 421.291C487.263 418.935 491.077 418.935 493.423 421.291L493.751 421.621C496.081 423.962 496.081 427.746 493.751 430.087L440.205 483.879C437.859 486.235 434.045 486.235 431.7 483.879L412.189 464.278C409.858 461.937 409.858 458.153 412.189 455.812L412.517 455.482Z" fill="#05060F"/>
</svg>
