<svg width="600" height="600" viewBox="0 0 600 600" fill="none" xmlns="http://www.w3.org/2000/svg">
<path d="M100.069 392.6L301.012 314.575C301.962 314.206 303.018 314.213 303.963 314.597L496.368 392.621C499.624 393.941 499.717 398.518 496.517 399.97L312.196 483.597C306.017 486.4 298.94 486.457 292.717 483.754L99.9228 399.998C96.6451 398.574 96.7374 393.894 100.069 392.6Z" fill="#7657FF"/>
<path fill-rule="evenodd" clip-rule="evenodd" d="M302.451 319.379L104.146 396.381L294.709 479.168C299.636 481.308 305.239 481.263 310.13 479.044L492.331 396.379L302.451 319.379ZM299.202 309.914C301.34 309.083 303.715 309.101 305.842 309.963L498.247 387.987C505.574 390.959 505.783 401.257 498.583 404.524L314.262 488.15C306.796 491.538 298.245 491.606 290.725 488.34L97.9306 404.584C90.5558 401.38 90.7635 390.85 98.259 387.939L299.202 309.914Z" fill="#05060F"/>
<path d="M100.128 289.126L293.656 214.411C299.333 212.219 305.631 212.266 311.275 214.541L496.311 289.146C499.577 290.463 499.67 295.054 496.46 296.502L312.149 379.643C305.997 382.419 298.96 382.475 292.764 379.799L99.9823 296.529C96.6944 295.109 96.7867 290.416 100.128 289.126Z" fill="#FF3D9A"/>
<path fill-rule="evenodd" clip-rule="evenodd" d="M309.405 219.179C304.937 217.377 299.951 217.34 295.457 219.075L104.211 292.909L294.747 375.208C299.652 377.327 305.223 377.283 310.094 375.085L492.269 292.907L309.405 219.179ZM313.144 209.904L311.283 214.52L313.144 209.904L498.18 284.509C505.53 287.472 505.739 297.801 498.516 301.06L314.206 384.201C306.771 387.554 298.269 387.623 290.782 384.389L97.9997 301.119C90.602 297.924 90.8095 287.363 98.327 284.461L291.855 209.746C298.715 207.098 306.325 207.155 313.144 209.904Z" fill="#05060F"/>
<path d="M100.069 190.6L293.612 115.448C299.315 113.233 305.649 113.28 311.318 115.58L496.368 190.621C499.624 191.941 499.717 196.518 496.517 197.97L312.196 281.597C306.017 284.4 298.94 284.457 292.717 281.754L99.9228 197.998C96.6451 196.574 96.7374 191.894 100.069 190.6Z" fill="#F8DB46"/>
<path fill-rule="evenodd" clip-rule="evenodd" d="M309.439 120.213C304.951 118.393 299.937 118.356 295.422 120.109L104.146 194.381L294.709 277.168C299.636 279.308 305.239 279.263 310.13 277.044L492.331 194.379L309.439 120.213ZM291.802 110.787C298.694 108.111 306.347 108.168 313.197 110.946L498.247 185.987C505.574 188.959 505.783 199.257 498.583 202.524L314.262 286.15C306.796 289.538 298.245 289.606 290.725 286.34L97.9306 202.584C90.5558 199.38 90.7635 188.85 98.259 185.939L291.802 110.787Z" fill="#05060F"/>
<path d="M128 64H46V146H30V60C30 53.3726 35.3726 48 42 48H128V64Z" fill="white"/>
<path d="M46 454L46 536H128V552H42C35.3726 552 30 546.627 30 540L30 454H46Z" fill="white"/>
<path d="M554 64H471V48H558C564.627 48 570 53.3726 570 60V146H554V64Z" fill="white"/>
<path d="M553.5 453.5V536.5H471.5V552.5H557.5C564.127 552.5 569.5 547.127 569.5 540.5V453.5H553.5Z" fill="white"/>
<path fill-rule="evenodd" clip-rule="evenodd" d="M56 146V74H128C133.523 74 138 69.5228 138 64V48C138 42.4772 133.523 38 128 38H42C29.8497 38 20 47.8498 20 60V146C20 151.523 24.4772 156 30 156H46C51.5229 156 56 151.523 56 146ZM30 146H46V64H128V48H42C35.3726 48 30 53.3726 30 60V146Z" fill="#05060F"/>
<path fill-rule="evenodd" clip-rule="evenodd" d="M128 526H56L56 454C56 448.477 51.5228 444 46 444H30C24.4772 444 20 448.477 20 454L20 540C20 552.15 29.8498 562 42 562H128C133.523 562 138 557.523 138 552V536C138 530.477 133.523 526 128 526ZM128 552V536H46L46 454H30L30 540C30 546.627 35.3726 552 42 552H128Z" fill="#05060F"/>
<path fill-rule="evenodd" clip-rule="evenodd" d="M544 74V146C544 151.523 548.477 156 554 156H570C575.523 156 580 151.523 580 146V60C580 47.8498 570.15 38 558 38H471C465.477 38 461 42.4772 461 48V64C461 69.5228 465.477 74 471 74H544ZM554 146H570V60C570 53.3726 564.627 48 558 48H471V64H554V146Z" fill="#05060F"/>
<path fill-rule="evenodd" clip-rule="evenodd" d="M471.5 526.5H543.5V453.5C543.5 447.977 547.977 443.5 553.5 443.5H569.5C575.023 443.5 579.5 447.977 579.5 453.5V540.5C579.5 552.65 569.65 562.5 557.5 562.5H471.5C465.977 562.5 461.5 558.023 461.5 552.5V536.5C461.5 530.977 465.977 526.5 471.5 526.5ZM471.5 552.5V536.5H553.5V453.5H569.5V540.5C569.5 547.127 564.127 552.5 557.5 552.5H471.5Z" fill="#05060F"/>
</svg>
