<svg width="600" height="600" viewBox="0 0 600 600" fill="none" xmlns="http://www.w3.org/2000/svg">
<path d="M90 74C90 65.1635 97.0114 58 105.66 58H489.34C497.989 58 505 65.1634 505 74V526C505 534.837 497.989 542 489.34 542H105.66C97.0114 542 90 534.837 90 526V74Z" fill="white"/>
<path fill-rule="evenodd" clip-rule="evenodd" d="M84 69C84 57.402 93.402 48 105 48H486C497.598 48 507 57.402 507 69V521C507 532.598 497.598 542 486 542H105C93.402 542 84 532.598 84 521V69ZM105 58C98.9249 58 94 62.9249 94 69V521C94 527.075 98.9249 532 105 532H486C492.075 532 497 527.075 497 521V69C497 62.9249 492.075 58 486 58H105Z" fill="#05060F"/>
<path d="M144.204 241.551C152.351 198.221 188.334 185.131 205.307 184.003C243.327 184.003 261.884 222.369 266.411 241.551L208.702 248.322L144.204 241.551Z" fill="#05060F" fill-opacity="0.24"/>
<path d="M230.583 126.919C230.583 142.016 218.345 154.255 203.248 154.255C188.151 154.255 175.912 142.016 175.912 126.919C175.912 111.822 188.151 99.5837 203.248 99.5837C218.345 99.5837 230.583 111.822 230.583 126.919Z" fill="#05060F" fill-opacity="0.24"/>
<path fill-rule="evenodd" clip-rule="evenodd" d="M206.01 95.9926C211.171 96.4702 216.248 97.5973 220.268 98.7395C226.174 100.417 232.139 104.999 235.22 109.923C240.189 117.864 240.592 126.828 236.831 135.321C232.287 145.583 224.261 153.193 212.995 156.693C212.471 156.856 211.942 156.938 211.421 156.946C208.39 157.77 205.005 158.136 201.094 157.821C189.168 156.862 177.569 151.299 171.82 139.77C170.645 137.414 170.285 135.092 170.174 133.137C170.105 131.919 170.133 130.461 170.154 129.339C170.163 128.893 170.17 128.5 170.17 128.197C170.17 127.755 170.165 127.284 170.159 126.788C170.121 123.483 170.07 119.084 171.539 114.834C172.986 110.645 176.166 106.892 179.394 104.058C182.683 101.171 186.641 98.6959 190.379 97.3683C195.282 95.6273 200.948 95.5242 206.01 95.9926ZM222.396 137.675C224.074 135.657 225.477 133.356 226.611 130.795C228.954 125.503 228.636 120.474 225.744 115.852C224.118 113.254 220.43 110.405 217.214 109.491C213.651 108.479 209.273 107.52 204.98 107.122C200.588 106.716 196.8 106.95 194.12 107.901C191.979 108.662 189.223 110.303 186.768 112.458C184.252 114.667 182.657 116.882 182.103 118.484C181.313 120.772 181.325 123.056 181.342 126.494C181.345 127.032 181.348 127.598 181.348 128.197C181.348 128.999 181.334 129.63 181.321 130.182C181.302 131.027 181.287 131.689 181.333 132.503C181.395 133.598 181.566 134.269 181.823 134.782C185.328 141.811 192.715 145.934 201.99 146.68C209.654 147.296 213.578 144.287 221.189 138.39C221.568 138.096 221.974 137.858 222.396 137.675Z" fill="#05060F"/>
<path fill-rule="evenodd" clip-rule="evenodd" d="M174.856 188.602C189.317 180.343 208.285 178.694 223.985 185.064C229.141 187.156 233.891 190.39 238.041 193.216C239.491 194.204 240.869 195.142 242.165 195.964C248.058 199.702 251.988 204.271 255.725 209.081C255.965 209.389 256.208 209.701 256.454 210.017C262.649 217.97 270.791 228.421 270.999 241.222C271.05 244.308 268.588 246.85 265.502 246.901C262.416 246.951 259.874 244.49 259.823 241.404C259.679 232.53 253.793 224.811 246.899 215.938C243.381 211.411 240.406 208.084 236.178 205.403C234.204 204.151 232.44 202.949 230.78 201.818C227.003 199.244 223.76 197.035 219.782 195.421C207.399 190.397 192.017 191.672 180.4 198.308C175.268 201.239 170.522 204.189 167.461 207.81C164.55 211.252 161.955 215.157 159.218 219.276L159.064 219.508C156.422 223.484 155.149 227.505 153.611 232.364C153.049 234.139 152.452 236.025 151.74 238.061C151.26 239.434 150.772 240.774 149.952 242.318C149.946 242.405 149.94 242.509 149.934 242.642C149.931 242.694 149.928 242.757 149.925 242.83C149.911 243.162 149.888 243.682 149.845 244.154C149.789 244.76 149.673 245.642 149.356 246.586C148.371 249.511 145.201 251.084 142.276 250.099C139.407 249.133 137.839 246.066 138.708 243.189C138.71 243.172 138.712 243.151 138.715 243.126C138.731 242.948 138.738 242.789 138.75 242.511C138.755 242.398 138.761 242.266 138.769 242.105C138.791 241.656 138.829 240.949 138.956 240.202C139.083 239.451 139.339 238.404 139.94 237.332C140.427 236.464 140.708 235.747 141.189 234.372C141.656 233.037 142.112 231.59 142.59 230.068C144.236 224.838 146.157 218.735 149.755 213.321C149.853 213.174 149.951 213.025 150.05 212.877C152.68 208.917 155.59 204.538 158.926 200.592C163.433 195.263 169.869 191.451 174.856 188.602ZM138.7 243.25C138.7 243.25 138.7 243.248 138.701 243.245C138.7 243.248 138.7 243.25 138.7 243.25Z" fill="#05060F"/>
<path fill-rule="evenodd" clip-rule="evenodd" d="M143.746 244.803C143.746 241.717 146.248 239.214 149.335 239.214H261.893C264.98 239.214 267.482 241.717 267.482 244.803C267.482 247.89 264.98 250.392 261.893 250.392H149.335C146.248 250.392 143.746 247.89 143.746 244.803Z" fill="#05060F"/>
<path d="M359.28 104.875H545.45V241.144H359.28V104.875Z" fill="#DB2323"/>
<path fill-rule="evenodd" clip-rule="evenodd" d="M372.617 98.3486C402.414 97.4562 430.858 97.9021 459.148 98.3457L459.215 98.3467C487.564 98.7912 515.761 99.2322 545.268 98.3486C548.635 98.2477 551.446 100.895 551.547 104.262C551.647 107.629 549 110.44 545.633 110.541C515.824 111.434 487.374 110.988 459.08 110.544L459.024 110.543C430.675 110.099 402.482 109.657 372.982 110.541C368.678 110.67 366.272 109.071 361.95 110.657C358.788 111.817 354.5 110.509 354.5 107C353.877 102.468 355.838 100.16 359 99C364.5 98.3485 367.281 98.5084 372.617 98.3486Z" fill="#05060F"/>
<path fill-rule="evenodd" clip-rule="evenodd" d="M454.436 237.342C485.089 236.303 513.868 235.259 544.699 235.259C548.067 235.259 550.798 237.99 550.798 241.358C550.798 244.726 548.067 247.457 544.699 247.457C514.097 247.457 485.513 248.493 454.813 249.534L454.747 249.536C424.103 250.575 393.345 251.618 362.545 251.618C359.177 251.618 356.446 248.888 356.446 245.52C356.446 242.151 359.177 239.421 362.545 239.421C393.126 239.421 423.7 238.384 454.4 237.343L454.436 237.342Z" fill="#05060F"/>
<path fill-rule="evenodd" clip-rule="evenodd" d="M360.464 102.615C363.832 102.615 366.563 105.346 366.563 108.714V242.396C366.563 245.764 363.832 248.495 360.464 248.495C357.096 248.495 354.365 245.764 354.365 242.396V106C354.365 102.632 357.096 102.615 360.464 102.615Z" fill="#05060F"/>
<path fill-rule="evenodd" clip-rule="evenodd" d="M546.699 105.205C550.067 105.205 552.798 107.935 552.798 111.304C552.798 132.884 552.538 154.578 552.278 176.251L552.277 176.336C552.017 198.05 551.757 219.744 551.757 241.356C551.757 244.724 549.027 247.455 545.658 247.455C542.29 247.455 539.56 244.724 539.56 241.356C539.56 219.658 539.82 197.892 540.08 176.19L540.081 176.142C540.341 154.444 540.6 132.811 540.6 111.304C540.6 107.935 543.331 105.205 546.699 105.205Z" fill="#05060F"/>
<path fill-rule="evenodd" clip-rule="evenodd" d="M546.457 110.239C547.523 113.435 545.796 116.889 542.6 117.954C534.032 120.81 525.614 125.131 518.106 130.401C505.186 139.471 493.392 149.731 481.359 160.2C475.019 165.715 468.613 171.289 461.94 176.776C431.344 201.938 399.492 226.49 365.009 246.837C362.108 248.549 358.369 247.585 356.657 244.684C354.945 241.783 355.909 238.043 358.81 236.332C392.475 216.467 423.752 192.389 454.193 167.355C460.303 162.33 466.442 156.993 472.664 151.585C485.018 140.846 497.694 129.827 511.098 120.418C519.515 114.509 528.987 109.634 538.743 106.382C541.938 105.317 545.392 107.044 546.457 110.239Z" fill="#05060F"/>
<path fill-rule="evenodd" clip-rule="evenodd" d="M361.712 105.584C362.777 102.389 366.231 100.662 369.427 101.727C371.373 102.375 372.773 103.413 373.746 104.242C374.147 104.584 374.536 104.945 374.821 105.209C374.859 105.245 374.896 105.279 374.931 105.311C375.259 105.615 375.487 105.821 375.705 105.999L375.943 106.194C381.186 110.484 386.071 114.481 391.401 118.171C420.129 138.06 447.593 159.55 474.626 181.391C478.217 184.292 481.792 187.203 485.362 190.111C504.228 205.475 522.944 220.717 543.045 233.664C545.877 235.487 546.694 239.262 544.87 242.093C543.046 244.925 539.272 245.742 536.44 243.918C515.716 230.57 496.39 214.828 477.532 199.467C473.993 196.585 470.472 193.716 466.96 190.879C440.006 169.102 412.817 147.833 384.458 128.2C378.72 124.228 373.506 119.961 368.372 115.76C368.241 115.653 368.111 115.547 367.981 115.44C367.451 115.006 366.988 114.58 366.645 114.263C366.603 114.224 366.564 114.188 366.526 114.153C366.216 113.866 366.027 113.69 365.833 113.526C365.661 113.379 365.563 113.31 365.521 113.282C362.357 112.199 360.652 108.763 361.712 105.584Z" fill="#05060F"/>
<path d="M128.165 379.344H278.412V482.24H128.165V379.344Z" fill="#F8DB46"/>
<path d="M128.165 463.118H280.233V567.835H128.165V463.118Z" fill="#2187FF"/>
<path fill-rule="evenodd" clip-rule="evenodd" d="M279.322 373.91C282.826 373.91 285.666 376.751 285.666 380.254L285.666 567.835C285.666 571.338 282.826 574.179 279.322 574.179C275.819 574.179 272.979 571.338 272.979 567.835L272.979 380.254C272.979 376.751 275.819 373.91 279.322 373.91Z" fill="#05060F"/>
<path fill-rule="evenodd" clip-rule="evenodd" d="M126.344 373.91C129.847 373.91 132.688 376.751 132.688 380.254L132.687 567.835C132.687 571.338 129.847 574.179 126.344 574.179C122.84 574.179 120 571.338 120 567.835L120 380.254C120 376.751 122.84 373.91 126.344 373.91Z" fill="#05060F"/>
<path fill-rule="evenodd" clip-rule="evenodd" d="M121.928 379.344C121.928 375.84 124.768 373 128.271 373H278.518C282.022 373 284.862 375.84 284.862 379.344C284.862 382.847 282.022 385.687 278.518 385.687H128.271C124.768 385.687 121.928 382.847 121.928 379.344Z" fill="#05060F"/>
<path fill-rule="evenodd" clip-rule="evenodd" d="M273 464.13C225.126 467.598 175.5 466.982 127.673 463.911C124.335 463.533 122.035 460.481 122.537 457.094C123.038 453.707 126.151 451.268 129.489 451.646C176.202 455.662 225.171 455.175 272 451.801C280.257 451.206 280.072 463.618 273 464.13Z" fill="#05060F"/>
<path fill-rule="evenodd" clip-rule="evenodd" d="M120.4 569.656C120.4 566.153 123.241 563.312 126.744 563.312H275.51C279.013 563.312 281.854 566.153 281.854 569.656C281.854 573.16 279.013 576 275.51 576H126.744C123.241 576 120.4 573.16 120.4 569.656Z" fill="#05060F"/>
<path fill-rule="evenodd" clip-rule="evenodd" d="M383.702 266C386.628 266 389 268.367 389 271.287C389 287.821 381.493 306.877 368.226 317.016C355.654 326.624 341.453 328.361 327.737 326.882C315.542 325.566 303.228 321.637 292.339 318.163C291.145 317.782 289.968 317.407 288.81 317.041C274.107 312.393 257.188 313.299 244.036 319.498C231.086 325.601 221.981 336.666 221.594 352.839C221.524 355.758 219.096 358.068 216.171 357.998C213.246 357.929 210.932 355.505 211.002 352.586C211.501 331.762 223.569 317.449 239.512 309.936C255.252 302.517 274.946 301.566 292.009 306.959C293.168 307.326 294.33 307.696 295.494 308.067C306.548 311.587 317.815 315.175 328.876 316.368C340.917 317.667 352.075 316.04 361.784 308.62C371.868 300.914 378.405 285.31 378.405 271.287C378.405 268.367 380.777 266 383.702 266Z" fill="#05060F"/>
<path fill-rule="evenodd" clip-rule="evenodd" d="M318 382.938C318 380.176 320.239 377.938 323 377.938H456.125C458.886 377.938 461.125 380.176 461.125 382.938C461.125 385.699 458.886 387.938 456.125 387.938H323C320.239 387.938 318 385.699 318 382.938Z" fill="#05060F"/>
<path fill-rule="evenodd" clip-rule="evenodd" d="M318 419.5C318 416.739 320.239 414.5 323 414.5H454.25C457.011 414.5 459.25 416.739 459.25 419.5C459.25 422.261 457.011 424.5 454.25 424.5H323C320.239 424.5 318 422.261 318 419.5Z" fill="#05060F"/>
<path fill-rule="evenodd" clip-rule="evenodd" d="M318 455.125C318 452.364 320.239 450.125 323 450.125H398C400.761 450.125 403 452.364 403 455.125C403 457.886 400.761 460.125 398 460.125H323C320.239 460.125 318 457.886 318 455.125Z" fill="#05060F"/>
</svg>
