<svg width="600" height="600" viewBox="0 0 600 600" fill="none" xmlns="http://www.w3.org/2000/svg">
<path d="M95 68H505V368H95V68Z" fill="#15D6CF"/>
<path fill-rule="evenodd" clip-rule="evenodd" d="M90 63H510V373H90V63ZM100 73V363H500V73H100Z" fill="#05060F"/>
<path d="M476 42C476 40.8954 476.895 40 478 40H530C531.105 40 532 40.8954 532 42V94C532 95.1046 531.105 96 530 96H478C476.895 96 476 95.1046 476 94V42Z" fill="white"/>
<path fill-rule="evenodd" clip-rule="evenodd" d="M471 42C471 38.134 474.134 35 478 35H530C533.866 35 537 38.134 537 42V94C537 97.866 533.866 101 530 101H478C474.134 101 471 97.866 471 94V42ZM481 45V91H527V45H481Z" fill="#05060F"/>
<path d="M69 42C69 40.8954 69.8954 40 71 40H123C124.105 40 125 40.8954 125 42V94C125 95.1046 124.105 96 123 96H71C69.8954 96 69 95.1046 69 94V42Z" fill="white"/>
<path fill-rule="evenodd" clip-rule="evenodd" d="M64 42C64 38.134 67.134 35 71 35H123C126.866 35 130 38.134 130 42V94C130 97.866 126.866 101 123 101H71C67.134 101 64 97.866 64 94V42ZM74 45V91H120V45H74Z" fill="#05060F"/>
<path d="M476 341C476 339.895 476.895 339 478 339H530C531.105 339 532 339.895 532 341V393C532 394.105 531.105 395 530 395H478C476.895 395 476 394.105 476 393V341Z" fill="white"/>
<path fill-rule="evenodd" clip-rule="evenodd" d="M471 341C471 337.134 474.134 334 478 334H530C533.866 334 537 337.134 537 341V393C537 396.866 533.866 400 530 400H478C474.134 400 471 396.866 471 393V341ZM481 344V390H527V344H481Z" fill="#05060F"/>
<path d="M69 341C69 339.895 69.8954 339 71 339H123C124.105 339 125 339.895 125 341V393C125 394.105 124.105 395 123 395H71C69.8954 395 69 394.105 69 393V341Z" fill="white"/>
<path fill-rule="evenodd" clip-rule="evenodd" d="M64 341C64 337.134 67.134 334 71 334H123C126.866 334 130 337.134 130 341V393C130 396.866 126.866 400 123 400H71C67.134 400 64 396.866 64 393V341ZM74 344V390H120V344H74Z" fill="#05060F"/>
<path d="M69 496C69 456.236 101.236 424 141 424H237C276.764 424 309 456.236 309 496C309 535.765 276.764 568 237 568H141C101.236 568 69 535.765 69 496Z" fill="white"/>
<path fill-rule="evenodd" clip-rule="evenodd" d="M64 496C64 453.474 98.4741 419 141 419H237C279.526 419 314 453.474 314 496C314 538.526 279.526 573 237 573H141C98.4741 573 64 538.526 64 496ZM141 429C103.997 429 74 458.997 74 496C74 533.003 103.997 563 141 563H237C274.003 563 304 533.003 304 496C304 458.997 274.003 429 237 429H141Z" fill="#05060F"/>
<path d="M113.025 519V466.636H148.77V476.915H125.682V487.653H146.494V497.957H125.682V519H113.025Z" fill="#DB2323"/>
<path d="M173.475 519.741C169.35 519.741 165.804 518.898 162.838 517.21C159.889 515.506 157.614 513.136 156.012 510.102C154.426 507.051 153.634 503.514 153.634 499.491C153.634 495.452 154.426 491.915 156.012 488.881C157.614 485.829 159.889 483.46 162.838 481.773C165.804 480.068 169.35 479.216 173.475 479.216C177.6 479.216 181.137 480.068 184.085 481.773C187.051 483.46 189.327 485.829 190.912 488.881C192.514 491.915 193.316 495.452 193.316 499.491C193.316 503.514 192.514 507.051 190.912 510.102C189.327 513.136 187.051 515.506 184.085 517.21C181.137 518.898 177.6 519.741 173.475 519.741ZM173.551 510.307C175.051 510.307 176.321 509.847 177.361 508.926C178.401 508.006 179.193 506.727 179.739 505.091C180.301 503.454 180.583 501.562 180.583 499.415C180.583 497.233 180.301 495.324 179.739 493.687C179.193 492.051 178.401 490.773 177.361 489.852C176.321 488.932 175.051 488.472 173.551 488.472C172 488.472 170.688 488.932 169.614 489.852C168.557 490.773 167.747 492.051 167.185 493.687C166.639 495.324 166.367 497.233 166.367 499.415C166.367 501.562 166.639 503.454 167.185 505.091C167.747 506.727 168.557 508.006 169.614 508.926C170.688 509.847 172 510.307 173.551 510.307Z" fill="#05060F"/>
<path d="M212.223 496.602V519H199.72V479.727H211.61V486.937H212.044C212.914 484.534 214.397 482.651 216.493 481.287C218.59 479.906 221.087 479.216 223.985 479.216C226.746 479.216 229.141 479.838 231.169 481.082C233.215 482.31 234.8 484.031 235.925 486.247C237.067 488.446 237.63 491.02 237.612 493.969V519H225.11V496.423C225.127 494.241 224.573 492.537 223.448 491.31C222.34 490.082 220.797 489.469 218.82 489.469C217.507 489.469 216.348 489.758 215.343 490.338C214.354 490.901 213.587 491.71 213.041 492.767C212.513 493.824 212.24 495.102 212.223 496.602Z" fill="#05060F"/>
<path d="M267.521 479.727V488.932H242.745V479.727H267.521ZM247.936 470.318H260.438V506.651C260.438 507.418 260.558 508.04 260.796 508.517C261.052 508.977 261.419 509.31 261.896 509.514C262.373 509.702 262.944 509.795 263.609 509.795C264.086 509.795 264.589 509.753 265.117 509.668C265.663 509.565 266.072 509.48 266.345 509.412L268.237 518.437C267.64 518.608 266.796 518.821 265.706 519.077C264.632 519.332 263.345 519.494 261.845 519.562C258.913 519.699 256.399 519.358 254.302 518.54C252.223 517.704 250.629 516.409 249.521 514.653C248.43 512.898 247.902 510.69 247.936 508.031V470.318Z" fill="#05060F"/>
<path d="M152 216C152 176.236 184.236 144 224 144H498C537.764 144 570 176.236 570 216C570 255.765 537.764 288 498 288H224C184.235 288 152 255.765 152 216Z" fill="white"/>
<path fill-rule="evenodd" clip-rule="evenodd" d="M147 216C147 173.474 181.474 139 224 139H498C540.526 139 575 173.474 575 216C575 258.526 540.526 293 498 293H224C181.474 293 147 258.526 147 216ZM224 149C186.997 149 157 178.997 157 216C157 253.003 186.997 283 224 283H498C535.003 283 565 253.003 565 216C565 178.997 535.003 149 498 149H224Z" fill="#05060F"/>
<path d="M258.79 238V198.727H270.935V205.886H271.344C272.06 203.295 273.228 201.369 274.847 200.108C276.466 198.83 278.35 198.19 280.497 198.19C281.077 198.19 281.674 198.233 282.287 198.318C282.901 198.386 283.472 198.497 284 198.651V209.517C283.404 209.312 282.62 209.151 281.648 209.031C280.693 208.912 279.841 208.852 279.091 208.852C277.608 208.852 276.27 209.185 275.077 209.849C273.901 210.497 272.972 211.409 272.29 212.585C271.625 213.744 271.293 215.108 271.293 216.676V238H258.79Z" fill="#05060F"/>
<path d="M313.09 198.727V207.932H288.315V198.727H313.09ZM293.505 189.318H306.008V225.651C306.008 226.418 306.127 227.04 306.366 227.517C306.622 227.977 306.988 228.31 307.465 228.514C307.943 228.702 308.514 228.795 309.179 228.795C309.656 228.795 310.159 228.753 310.687 228.668C311.233 228.565 311.642 228.48 311.914 228.412L313.806 237.437C313.21 237.608 312.366 237.821 311.275 238.077C310.201 238.332 308.914 238.494 307.414 238.562C304.483 238.699 301.968 238.358 299.872 237.54C297.792 236.705 296.198 235.409 295.09 233.653C294 231.898 293.471 229.69 293.505 227.031V189.318Z" fill="#05060F"/>
<path d="M320.313 238V185.636H332.816V205.452H333.072C333.583 204.259 334.308 203.108 335.245 202C336.2 200.892 337.41 199.989 338.876 199.29C340.359 198.574 342.132 198.216 344.194 198.216C346.921 198.216 349.47 198.932 351.839 200.364C354.225 201.795 356.152 204.003 357.617 206.986C359.083 209.969 359.816 213.77 359.816 218.389C359.816 222.838 359.109 226.562 357.694 229.562C356.296 232.562 354.404 234.812 352.018 236.312C349.649 237.812 347.015 238.562 344.117 238.562C342.14 238.562 340.427 238.239 338.978 237.591C337.529 236.943 336.311 236.091 335.322 235.034C334.35 233.977 333.6 232.844 333.072 231.634H332.688V238H320.313ZM332.561 218.364C332.561 220.477 332.842 222.318 333.404 223.886C333.984 225.455 334.811 226.673 335.884 227.543C336.975 228.395 338.279 228.821 339.796 228.821C341.331 228.821 342.635 228.395 343.708 227.543C344.782 226.673 345.592 225.455 346.137 223.886C346.7 222.318 346.981 220.477 346.981 218.364C346.981 216.25 346.7 214.418 346.137 212.866C345.592 211.315 344.782 210.114 343.708 209.261C342.652 208.409 341.348 207.983 339.796 207.983C338.262 207.983 336.958 208.401 335.884 209.236C334.811 210.071 333.984 211.264 333.404 212.815C332.842 214.366 332.561 216.216 332.561 218.364Z" fill="#05060F"/>
<path d="M384.701 238.741C380.576 238.741 377.03 237.898 374.064 236.21C371.115 234.506 368.84 232.136 367.237 229.102C365.652 226.051 364.86 222.514 364.86 218.491C364.86 214.452 365.652 210.915 367.237 207.881C368.84 204.83 371.115 202.46 374.064 200.773C377.03 199.068 380.576 198.216 384.701 198.216C388.826 198.216 392.362 199.068 395.311 200.773C398.277 202.46 400.553 204.83 402.138 207.881C403.74 210.915 404.541 214.452 404.541 218.491C404.541 222.514 403.74 226.051 402.138 229.102C400.553 232.136 398.277 234.506 395.311 236.21C392.362 237.898 388.826 238.741 384.701 238.741ZM384.777 229.307C386.277 229.307 387.547 228.847 388.587 227.926C389.627 227.006 390.419 225.727 390.965 224.091C391.527 222.455 391.809 220.562 391.809 218.415C391.809 216.233 391.527 214.324 390.965 212.687C390.419 211.051 389.627 209.773 388.587 208.852C387.547 207.932 386.277 207.472 384.777 207.472C383.226 207.472 381.914 207.932 380.84 208.852C379.783 209.773 378.973 211.051 378.411 212.687C377.865 214.324 377.593 216.233 377.593 218.415C377.593 220.562 377.865 222.455 378.411 224.091C378.973 225.727 379.783 227.006 380.84 227.926C381.914 228.847 383.226 229.307 384.777 229.307Z" fill="#05060F"/>
<path d="M422.017 238.665C419.512 238.665 417.287 238.247 415.344 237.412C413.418 236.56 411.892 235.281 410.767 233.577C409.659 231.855 409.105 229.699 409.105 227.108C409.105 224.926 409.489 223.085 410.256 221.585C411.023 220.085 412.08 218.866 413.426 217.929C414.773 216.991 416.324 216.284 418.08 215.807C419.835 215.312 421.71 214.98 423.705 214.81C425.938 214.605 427.736 214.392 429.1 214.17C430.463 213.932 431.452 213.599 432.066 213.173C432.696 212.73 433.012 212.108 433.012 211.307V211.179C433.012 209.866 432.56 208.852 431.657 208.136C430.753 207.42 429.534 207.062 428 207.062C426.347 207.062 425.017 207.42 424.012 208.136C423.006 208.852 422.367 209.841 422.094 211.102L410.563 210.693C410.904 208.307 411.782 206.176 413.196 204.301C414.628 202.409 416.588 200.926 419.077 199.852C421.583 198.761 424.591 198.216 428.103 198.216C430.608 198.216 432.918 198.514 435.032 199.111C437.145 199.69 438.986 200.543 440.554 201.668C442.122 202.776 443.333 204.139 444.185 205.759C445.054 207.378 445.489 209.227 445.489 211.307V238H433.728V232.528H433.421C432.722 233.858 431.827 234.983 430.736 235.903C429.662 236.824 428.392 237.514 426.926 237.974C425.478 238.435 423.841 238.665 422.017 238.665ZM425.878 230.483C427.225 230.483 428.435 230.21 429.509 229.665C430.6 229.119 431.469 228.369 432.117 227.415C432.764 226.443 433.088 225.318 433.088 224.04V220.307C432.73 220.494 432.296 220.665 431.784 220.818C431.29 220.972 430.745 221.116 430.148 221.253C429.551 221.389 428.938 221.509 428.307 221.611C427.676 221.713 427.071 221.807 426.492 221.892C425.316 222.08 424.31 222.369 423.475 222.761C422.657 223.153 422.026 223.665 421.583 224.295C421.157 224.909 420.943 225.642 420.943 226.494C420.943 227.79 421.404 228.778 422.324 229.46C423.262 230.142 424.446 230.483 425.878 230.483Z" fill="#05060F"/>
<path d="M453.134 238V198.727H465.279V205.886H465.688C466.404 203.295 467.571 201.369 469.191 200.108C470.81 198.83 472.693 198.19 474.841 198.19C475.421 198.19 476.017 198.233 476.631 198.318C477.245 198.386 477.816 198.497 478.344 198.651V209.517C477.747 209.312 476.963 209.151 475.992 209.031C475.037 208.912 474.185 208.852 473.435 208.852C471.952 208.852 470.614 209.185 469.421 209.849C468.245 210.497 467.316 211.409 466.634 212.585C465.969 213.744 465.637 215.108 465.637 216.676V238H453.134Z" fill="#05060F"/>
<path d="M495.743 238.562C492.845 238.562 490.212 237.812 487.843 236.312C485.473 234.812 483.581 232.562 482.166 229.562C480.752 226.562 480.044 222.838 480.044 218.389C480.044 213.77 480.777 209.969 482.243 206.986C483.709 204.003 485.627 201.795 487.996 200.364C490.382 198.932 492.948 198.216 495.692 198.216C497.755 198.216 499.519 198.574 500.985 199.29C502.451 199.989 503.661 200.892 504.615 202C505.57 203.108 506.294 204.259 506.789 205.452H507.044V185.636H519.547V238H507.172V231.634H506.789C506.26 232.844 505.51 233.977 504.539 235.034C503.567 236.091 502.348 236.943 500.882 237.591C499.434 238.239 497.72 238.562 495.743 238.562ZM500.09 228.821C501.607 228.821 502.902 228.395 503.976 227.543C505.05 226.673 505.877 225.455 506.456 223.886C507.036 222.318 507.326 220.477 507.326 218.364C507.326 216.216 507.036 214.366 506.456 212.815C505.894 211.264 505.067 210.071 503.976 209.236C502.902 208.401 501.607 207.983 500.09 207.983C498.539 207.983 497.226 208.409 496.152 209.261C495.078 210.114 494.26 211.315 493.698 212.866C493.152 214.418 492.88 216.25 492.88 218.364C492.88 220.477 493.161 222.318 493.723 223.886C494.286 225.455 495.095 226.673 496.152 227.543C497.226 228.395 498.539 228.821 500.09 228.821Z" fill="#05060F"/>
<path d="M214.57 238H200.968L218.635 185.636H235.485L253.152 238H239.55L227.252 198.83H226.843L214.57 238ZM212.755 217.392H241.187V227.006H212.755V217.392Z" fill="#DB2323"/>
<path d="M369.038 541H348.606L379.739 450.818H404.31L435.398 541H414.966L392.376 471.426H391.672L369.038 541ZM367.761 505.552H416.023V520.436H367.761V505.552Z" fill="#F8DB46"/>
<path d="M483.187 542.277C478.871 542.277 475.026 541.528 471.65 540.031C468.274 538.505 465.602 536.259 463.636 533.294C461.698 530.3 460.729 526.571 460.729 522.109C460.729 518.352 461.419 515.196 462.799 512.642C464.179 510.088 466.057 508.033 468.435 506.477C470.813 504.921 473.514 503.747 476.538 502.954C479.591 502.162 482.79 501.604 486.137 501.281C490.071 500.87 493.241 500.489 495.648 500.136C498.056 499.755 499.802 499.197 500.888 498.463C501.975 497.729 502.518 496.643 502.518 495.204V494.94C502.518 492.151 501.637 489.994 499.876 488.467C498.144 486.941 495.678 486.177 492.478 486.177C489.102 486.177 486.416 486.926 484.42 488.423C482.423 489.891 481.102 491.74 480.457 493.972L463.107 492.562C463.988 488.453 465.72 484.901 468.303 481.906C470.887 478.883 474.218 476.563 478.299 474.949C482.409 473.305 487.164 472.483 492.566 472.483C496.324 472.483 499.92 472.923 503.354 473.804C506.818 474.685 509.886 476.05 512.557 477.899C515.258 479.749 517.387 482.126 518.942 485.033C520.498 487.909 521.276 491.359 521.276 495.381V541H503.486V531.621H502.958C501.872 533.734 500.419 535.598 498.599 537.213C496.779 538.798 494.592 540.046 492.038 540.956C489.484 541.837 486.533 542.277 483.187 542.277ZM488.559 529.331C491.318 529.331 493.755 528.788 495.869 527.702C497.982 526.586 499.641 525.089 500.844 523.21C502.048 521.331 502.65 519.203 502.65 516.825V509.648C502.063 510.029 501.255 510.382 500.228 510.704C499.23 510.998 498.1 511.277 496.837 511.541C495.575 511.776 494.313 511.996 493.05 512.202C491.788 512.378 490.643 512.539 489.616 512.686C487.414 513.009 485.491 513.523 483.847 514.227C482.203 514.932 480.926 515.886 480.016 517.089C479.106 518.264 478.651 519.731 478.651 521.493C478.651 524.047 479.576 525.999 481.425 527.349C483.304 528.67 485.682 529.331 488.559 529.331Z" fill="#F8DB46"/>
<path fill-rule="evenodd" clip-rule="evenodd" d="M378.548 544.094C377.208 548.212 373.369 551 369.038 551H348.607C345.373 551 342.34 549.437 340.463 546.804C338.587 544.171 338.099 540.793 339.154 537.737L370.286 447.555C371.678 443.523 375.473 440.818 379.739 440.818H404.31C408.576 440.818 412.373 443.525 413.764 447.559L444.852 537.741C445.905 540.797 445.417 544.174 443.54 546.806C441.663 549.437 438.63 551 435.398 551H414.966C410.633 551 406.793 548.209 405.455 544.088L401.022 530.436H382.991L378.548 544.094ZM408.289 520.436L414.966 541H435.398L404.31 450.818H379.739L348.607 541H369.038L375.728 520.436H408.289ZM392.376 471.426H391.672L380.57 505.552H403.457L392.376 471.426ZM467.596 549.173L467.53 549.143C462.515 546.875 458.353 543.421 455.302 538.822C455.281 538.79 455.261 538.758 455.24 538.726C452.02 533.751 450.729 528.016 450.729 522.109C450.729 517.167 451.634 512.27 454.001 507.889C455.276 505.528 456.853 503.403 458.716 501.547C457.297 500.853 456.046 499.825 455.082 498.529C453.365 496.219 452.726 493.282 453.329 490.467C454.537 484.831 456.976 479.733 460.716 475.392C464.459 471.017 469.181 467.805 474.605 465.656C480.119 463.454 486.172 462.483 492.566 462.483C497.108 462.483 501.538 463.016 505.827 464.115C510.319 465.257 514.491 467.079 518.227 469.662C522.246 472.418 525.445 475.999 527.748 480.293C530.249 484.926 531.276 490.081 531.276 495.381V541C531.276 546.523 526.799 551 521.276 551H503.486C501.446 551 499.548 550.389 497.966 549.339C497.127 549.719 496.269 550.064 495.394 550.376C495.374 550.383 495.354 550.39 495.333 550.397C495.321 550.401 495.309 550.406 495.298 550.41C491.479 551.727 487.388 552.277 483.187 552.277C477.708 552.277 472.445 551.323 467.596 549.173ZM493.486 540.386C495.202 539.646 496.732 538.734 498.076 537.651C498.253 537.508 498.428 537.362 498.599 537.213C499.105 536.763 499.584 536.295 500.034 535.806C500.057 535.781 500.081 535.755 500.105 535.728C501.239 534.484 502.19 533.115 502.958 531.621H503.486V541H521.276V495.381C521.276 491.359 520.498 487.909 518.942 485.033C517.387 482.126 515.258 479.749 512.558 477.899C509.886 476.05 506.818 474.685 503.354 473.804C499.92 472.923 496.324 472.483 492.566 472.483C487.165 472.483 482.409 473.305 478.299 474.949C474.219 476.563 470.887 478.883 468.303 481.906C468.027 482.227 467.76 482.553 467.503 482.887C465.359 485.667 463.894 488.892 463.107 492.562L480.457 493.972C480.68 493.199 480.985 492.472 481.371 491.791C482.098 490.505 483.115 489.383 484.42 488.423C486.416 486.926 489.102 486.177 492.478 486.177C495.678 486.177 498.144 486.941 499.876 488.467C501.637 489.994 502.518 492.151 502.518 494.94V495.204C502.518 496.643 501.975 497.729 500.888 498.463C499.802 499.197 498.056 499.755 495.648 500.136C493.51 500.449 490.768 500.785 487.425 501.145C487.005 501.19 486.576 501.235 486.137 501.281C483.958 501.491 481.842 501.801 479.788 502.21C478.686 502.43 477.603 502.678 476.538 502.954C475.877 503.128 475.231 503.319 474.601 503.529C472.349 504.279 470.293 505.261 468.435 506.477C466.058 508.033 464.179 510.088 462.799 512.642C461.419 515.196 460.729 518.352 460.729 522.109C460.729 526.571 461.698 530.3 463.636 533.294C465.602 536.259 468.274 538.505 471.65 540.031C475.026 541.528 478.871 542.277 483.187 542.277C486.533 542.277 489.484 541.837 492.038 540.956C492.534 540.779 493.017 540.589 493.486 540.386ZM492.861 528.828C493.825 528.585 494.737 528.255 495.596 527.838C495.688 527.793 495.778 527.748 495.869 527.702C497.982 526.586 499.641 525.089 500.844 523.21C501.155 522.725 501.426 522.224 501.656 521.706C501.821 521.335 501.965 520.956 502.089 520.569C502.296 519.922 502.445 519.251 502.538 518.557C502.554 518.436 502.568 518.314 502.581 518.191C502.627 517.745 502.65 517.29 502.65 516.825V509.648C502.063 510.029 501.255 510.382 500.228 510.704C499.23 510.998 498.1 511.277 496.837 511.541C495.575 511.776 494.313 511.996 493.05 512.202C492.916 512.22 492.782 512.239 492.65 512.258C491.545 512.412 490.533 512.555 489.616 512.686C487.414 513.009 485.491 513.523 483.847 514.227C482.203 514.932 480.926 515.886 480.016 517.089C479.106 518.264 478.651 519.731 478.651 521.493C478.651 524.047 479.576 525.999 481.425 527.349C483.304 528.67 485.682 529.331 488.559 529.331C490.093 529.331 491.527 529.163 492.861 528.828ZM487.142 519.147C487.141 519.147 487.143 519.147 487.147 519.15C487.145 519.149 487.143 519.148 487.142 519.147Z" fill="#05060F"/>
</svg>
