<svg width="600" height="600" viewBox="0 0 600 600" fill="none" xmlns="http://www.w3.org/2000/svg">
<path d="M63 94.6776C63 85.4668 69.6981 78 77.9606 78L523.039 78C531.302 78 538 85.4668 538 94.6776V504.322C538 513.533 531.302 521 523.039 521H77.9606C69.6981 521 63 513.533 63 504.322V94.6776Z" fill="white"/>
<path fill-rule="evenodd" clip-rule="evenodd" d="M54 97C54 85.402 63.7262 76 75.7241 76H524.276C536.274 76 546 85.402 546 97V503C546 514.598 536.274 524 524.276 524H75.7241C63.7262 524 54 514.598 54 503V97ZM75.7241 86C69.4395 86 64.3448 90.9249 64.3448 97V503C64.3448 509.075 69.4395 514 75.7241 514H524.276C530.56 514 535.655 509.075 535.655 503V97C535.655 90.9249 530.56 86 524.276 86H75.7241Z" fill="#05060F"/>
<path d="M152 389C152 382.373 157.248 377 163.722 377H433.278C439.752 377 445 382.373 445 389V439C445 445.627 439.752 451 433.278 451H163.722C157.248 451 152 445.627 152 439V389Z" fill="#7657FF"/>
<path fill-rule="evenodd" clip-rule="evenodd" d="M149 389C149 379.611 156.611 372 166 372H434C443.389 372 451 379.611 451 389V441C451 450.389 443.389 458 434 458H166C156.611 458 149 450.389 149 441V389ZM166 382C162.134 382 159 385.134 159 389V441C159 444.866 162.134 448 166 448H434C437.866 448 441 444.866 441 441V389C441 385.134 437.866 382 434 382H166Z" fill="#05060F"/>
<path d="M154 220C151.239 220 149 222.239 149 225C149 227.761 151.239 230 154 230H457.5C460.261 230 462.5 227.761 462.5 225C462.5 222.239 460.261 220 457.5 220H154Z" fill="#05060F"/>
<path d="M149 267C149 264.239 151.239 262 154 262H457.5C460.261 262 462.5 264.239 462.5 267C462.5 269.761 460.261 272 457.5 272H154C151.239 272 149 269.761 149 267Z" fill="#05060F"/>
<path d="M149 309C149 306.239 151.239 304 154 304H457.5C460.261 304 462.5 306.239 462.5 309C462.5 311.761 460.261 314 457.5 314H154C151.239 314 149 311.761 149 309Z" fill="#05060F"/>
<path fill-rule="evenodd" clip-rule="evenodd" d="M225.635 407.989C225.314 408.01 224.891 408.059 224.346 408.159C215.911 409.718 206.103 415.286 199.127 421.279C197.234 422.905 195.321 424.905 194.258 426.632C192.811 428.984 189.731 429.717 187.379 428.27C185.027 426.823 184.294 423.743 185.741 421.391C187.585 418.396 190.376 415.613 192.61 413.694C200.429 406.976 211.809 400.307 222.529 398.326C225.478 397.781 228.587 397.736 231.211 399.2C234.164 400.848 235.234 403.646 235.531 405.913C235.807 408.025 235.507 410.224 235.217 411.905C235.078 412.709 234.917 413.521 234.771 414.253C234.757 414.326 234.742 414.399 234.728 414.47C234.566 415.288 234.427 416.001 234.322 416.66C234.246 417.136 234.146 417.672 234.054 418.163C234.041 418.231 234.029 418.297 234.017 418.363C233.909 418.939 233.807 419.499 233.721 420.057C233.72 420.059 233.72 420.06 233.72 420.062C236.141 419.053 238.504 417.845 241.067 416.528L241.199 416.46C244.359 414.837 247.835 413.051 251.663 411.668C252.525 411.356 253.846 410.929 255.299 410.689C256.621 410.47 258.752 410.28 260.844 411.09C263.645 412.176 265.845 413.943 267.259 415.079C267.569 415.328 267.841 415.547 268.074 415.721C269.42 416.731 270.631 417.431 272.955 417.6C276.131 417.832 283.225 417.896 288.854 417.946C291.18 417.967 293.255 417.985 294.701 418.013C297.462 418.065 299.658 420.345 299.606 423.106C299.554 425.867 297.274 428.063 294.513 428.011C293.315 427.988 291.473 427.972 289.33 427.952C283.611 427.901 275.744 427.831 272.227 427.574C267.446 427.225 264.443 425.5 262.071 423.719C261.401 423.216 260.863 422.79 260.398 422.422C259.252 421.514 258.555 420.962 257.444 420.5C257.336 420.503 257.166 420.516 256.931 420.555C256.327 420.655 255.648 420.861 255.06 421.073C251.878 422.223 248.916 423.738 245.636 425.423L245.536 425.475C242.367 427.103 238.884 428.892 235.052 430.269C232.786 431.084 229.658 431.615 226.92 429.763C224.259 427.962 223.701 425.056 223.563 423.469C223.41 421.709 223.627 419.891 223.839 418.524C223.95 417.805 224.077 417.116 224.186 416.532C224.198 416.463 224.211 416.396 224.223 416.33C224.319 415.814 224.393 415.421 224.446 415.085C224.585 414.214 224.76 413.327 224.92 412.522C224.933 412.454 224.947 412.386 224.96 412.319C225.11 411.564 225.247 410.876 225.363 410.204C225.529 409.243 225.612 408.521 225.635 407.989Z" fill="white"/>
<path d="M319.938 342.439L289.231 422.051L372.999 395.5L541.539 233.846L480.513 175.897L319.938 342.439Z" fill="#F8DB46"/>
<path d="M312.952 342.439L373.952 397.439L301.952 422.939L291.452 409.939L312.952 342.439Z" fill="#FEF7C1"/>
<path d="M484.615 176.006L541.439 230.939L588.439 176.006L574.201 139.908L539.439 127.939L484.615 176.006Z" fill="#FF3D9A"/>
<path fill-rule="evenodd" clip-rule="evenodd" d="M573.241 134.551C558.647 120.275 535.248 120.517 520.953 135.091L483.847 172.921L317.719 336.4C314.748 339.324 312.441 342.855 310.958 346.751L285.878 411.177C281.988 421.394 291.68 431.559 302.071 428.158L370.052 401.438C374.344 400.034 378.249 397.646 381.455 394.465L544.114 233.1L581.766 194.448C596.003 179.832 595.721 156.449 581.135 142.181L573.241 134.551ZM325.912 342.368L487.359 183.495L533.476 229.568L374.413 387.366C374.242 387.535 374.067 387.702 373.89 387.864L325.912 342.368ZM319.763 351.697L302.338 396.459L317.683 411.295L363.587 393.253L319.763 351.697ZM574.602 187.47L540.514 222.464L494.425 176.418L528.092 142.094C538.524 131.458 555.599 131.282 566.248 141.699L574.142 149.329C584.786 159.741 584.992 176.804 574.602 187.47Z" fill="#05060F"/>
<path d="M128 138C128 146.284 121.284 153 113 153C104.716 153 98 146.284 98 138C98 129.716 104.716 123 113 123C121.284 123 128 129.716 128 138Z" fill="#DB2323"/>
<path d="M182 138C182 146.284 175.284 153 167 153C158.716 153 152 146.284 152 138C152 129.716 158.716 123 167 123C175.284 123 182 129.716 182 138Z" fill="#F8DB46"/>
<path d="M236 138C236 146.284 229.284 153 221 153C212.716 153 206 146.284 206 138C206 129.716 212.716 123 221 123C229.284 123 236 129.716 236 138Z" fill="#12B823"/>
<path fill-rule="evenodd" clip-rule="evenodd" d="M93 138C93 126.954 101.954 118 113 118C124.046 118 133 126.954 133 138C133 149.046 124.046 158 113 158C101.954 158 93 149.046 93 138ZM113 128C107.477 128 103 132.477 103 138C103 143.523 107.477 148 113 148C118.523 148 123 143.523 123 138C123 132.477 118.523 128 113 128Z" fill="#05060F"/>
<path fill-rule="evenodd" clip-rule="evenodd" d="M147 138C147 126.954 155.954 118 167 118C178.046 118 187 126.954 187 138C187 149.046 178.046 158 167 158C155.954 158 147 149.046 147 138ZM167 128C161.477 128 157 132.477 157 138C157 143.523 161.477 148 167 148C172.523 148 177 143.523 177 138C177 132.477 172.523 128 167 128Z" fill="#05060F"/>
<path fill-rule="evenodd" clip-rule="evenodd" d="M221 118C209.954 118 201 126.954 201 138C201 149.046 209.954 158 221 158C232.046 158 241 149.046 241 138C241 126.954 232.046 118 221 118ZM211 138C211 132.477 215.477 128 221 128C226.523 128 231 132.477 231 138C231 143.523 226.523 148 221 148C215.477 148 211 143.523 211 138Z" fill="#05060F"/>
</svg>
