<svg width="600" height="600" viewBox="0 0 600 600" fill="none" xmlns="http://www.w3.org/2000/svg">
<path d="M83.2319 94.6776C83.2319 85.4668 89.3582 78 96.9154 78L504 78C511.557 78 517.683 85.4668 517.683 94.6776V504.322C517.683 513.533 511.557 521 504 521H96.9154C89.3583 521 83.2319 513.533 83.2319 504.322V94.6776Z" fill="white"/>
<path fill-rule="evenodd" clip-rule="evenodd" d="M75 97C75 85.402 83.8959 76 94.8696 76H505.13C516.104 76 525 85.402 525 97V503C525 514.598 516.104 524 505.13 524H94.8696C83.8959 524 75 514.598 75 503V97ZM94.8696 86C89.1215 86 84.4617 90.9249 84.4617 97V503C84.4617 509.075 89.1215 514 94.8696 514H505.13C510.878 514 515.538 509.075 515.538 503V97C515.538 90.9249 510.878 86 505.13 86H94.8696Z" fill="#05060F"/>
<path d="M419.936 201C422.697 201 424.936 203.239 424.936 206V309.245C424.936 316.977 418.668 323.245 410.936 323.245H219C216.791 323.245 215 325.036 215 327.245V399C215 401.209 216.791 403 219 403V413C211.268 413 205 406.732 205 399V327.245C205 319.513 211.268 313.245 219 313.245H410.936C413.145 313.245 414.936 311.454 414.936 309.245V206C414.936 203.239 417.174 201 419.936 201Z" fill="#05060F"/>
<path d="M441.756 178.929C441.756 190.906 432.047 200.616 420.069 200.616C408.092 200.616 398.382 190.906 398.382 178.929C398.382 166.952 408.092 157.242 420.069 157.242C432.047 157.242 441.756 166.952 441.756 178.929Z" fill="white"/>
<path fill-rule="evenodd" clip-rule="evenodd" d="M409.032 123C403.25 123 398.564 127.599 398.564 133.273V135.206C398.564 136.966 397.527 138.561 395.961 139.449C394.373 140.35 392.409 140.427 390.821 139.528L389.172 138.594C384.165 135.757 377.763 137.44 374.872 142.354L364.404 160.146C361.514 165.06 363.229 171.343 368.236 174.179L369.893 175.118C371.483 176.019 372.393 177.713 372.393 179.5C372.393 181.288 371.482 182.982 369.893 183.883L368.237 184.821C363.23 187.657 361.514 193.94 364.405 198.854L374.873 216.646C377.764 221.56 384.166 223.243 389.173 220.406L390.821 219.473C392.409 218.573 394.374 218.651 395.961 219.551C397.527 220.439 398.564 222.033 398.564 223.794V225.727C398.564 231.401 403.25 236 409.032 236H429.968C435.75 236 440.436 231.401 440.436 225.727V223.794C440.436 222.033 441.473 220.439 443.039 219.551C444.626 218.651 446.59 218.573 448.179 219.473L449.827 220.407C454.834 223.243 461.236 221.56 464.127 216.646L474.595 198.854C477.486 193.94 475.77 187.658 470.763 184.821L469.107 183.883C467.518 182.982 466.607 181.288 466.607 179.5C466.607 177.713 467.517 176.019 469.107 175.118L470.764 174.179C475.771 171.342 477.486 165.06 474.596 160.146L464.128 142.354C461.237 137.44 454.835 135.757 449.828 138.593L448.179 139.528C446.591 140.427 444.627 140.35 443.039 139.449C441.473 138.561 440.436 136.966 440.436 135.206V133.273C440.436 127.599 435.75 123 429.968 123H409.032ZM419.166 202.879C432.09 202.879 442.568 192.412 442.568 179.5C442.568 166.588 432.09 156.121 419.166 156.121C406.241 156.121 395.763 166.588 395.763 179.5C395.763 192.412 406.241 202.879 419.166 202.879Z" fill="#F95959"/>
<path fill-rule="evenodd" clip-rule="evenodd" d="M409.032 128C405.923 128 403.564 130.449 403.564 133.273V135.206C403.564 138.993 401.352 142.14 398.428 143.798C395.459 145.482 391.616 145.725 388.356 143.878L386.707 142.944L389.172 138.594L386.707 142.944C384.038 141.431 380.666 142.366 379.182 144.889L368.714 162.682C367.262 165.149 368.084 168.347 370.701 169.829L372.358 170.768C375.621 172.617 377.393 176.038 377.393 179.5C377.393 182.963 375.621 186.384 372.357 188.233L370.701 189.171C368.085 190.653 367.263 193.851 368.715 196.318L379.183 214.111C380.667 216.634 384.039 217.569 386.708 216.056L388.357 215.122C391.617 213.275 395.459 213.518 398.428 215.202C401.352 216.86 403.564 220.007 403.564 223.794V225.727C403.564 228.551 405.923 231 409.032 231H429.968C433.077 231 435.436 228.551 435.436 225.727V223.794C435.436 220.007 437.648 216.861 440.572 215.202C443.541 213.518 447.383 213.275 450.643 215.122L452.292 216.056C454.961 217.569 458.333 216.635 459.817 214.111L470.285 196.318C471.737 193.852 470.915 190.653 468.299 189.171L466.643 188.233C463.379 186.384 461.607 182.963 461.607 179.5C461.607 176.038 463.379 172.616 466.642 170.768L469.107 175.118L466.642 170.768L468.299 169.829C470.916 168.347 471.738 165.148 470.286 162.682L459.818 144.889L464.128 142.354L459.818 144.889C458.334 142.365 454.962 141.431 452.293 142.944L450.644 143.878L448.215 139.59L450.644 143.878C447.383 145.725 443.541 145.482 440.572 143.798C437.648 142.14 435.436 138.993 435.436 135.206V133.273C435.436 130.449 433.077 128 429.968 128H409.032ZM393.564 133.273C393.564 124.749 400.578 118 409.032 118H429.968C438.422 118 445.436 124.749 445.436 133.273V135.052C445.454 135.067 445.477 135.084 445.506 135.1C445.589 135.147 445.669 135.164 445.719 135.165C445.727 135.165 445.733 135.165 445.737 135.164L447.363 134.243L449.828 138.593L447.363 134.243C454.707 130.082 464.14 132.515 468.437 139.818L478.905 157.611C483.235 164.971 480.626 174.338 473.229 178.529L471.613 179.445C471.613 179.445 471.613 179.445 471.613 179.445C471.61 179.459 471.607 179.478 471.607 179.5C471.607 179.522 471.61 179.541 471.613 179.555C471.613 179.555 471.613 179.555 471.613 179.556L473.228 180.471C480.626 184.662 483.235 194.029 478.904 201.389L468.436 219.182C464.139 226.485 454.706 228.918 447.362 224.757L445.737 223.836C445.732 223.836 445.726 223.835 445.719 223.836C445.669 223.837 445.589 223.853 445.505 223.9C445.477 223.916 445.454 223.933 445.436 223.948V225.727C445.436 234.251 438.422 241 429.968 241H409.032C400.578 241 393.564 234.251 393.564 225.727V223.948C393.546 223.933 393.523 223.916 393.494 223.9C393.411 223.853 393.331 223.837 393.281 223.836C393.274 223.835 393.268 223.836 393.263 223.836L391.638 224.757C384.294 228.918 374.861 226.485 370.564 219.182L360.096 201.389C355.765 194.029 358.374 184.662 365.772 180.47L368.237 184.821L365.772 180.47L367.387 179.556C367.387 179.555 367.387 179.555 367.387 179.555C367.39 179.541 367.393 179.522 367.393 179.5C367.393 179.478 367.39 179.459 367.387 179.445C367.387 179.445 367.387 179.445 367.387 179.445L365.771 178.53C358.374 174.338 355.765 164.971 360.095 157.611L370.563 139.818C374.86 132.515 384.293 130.082 391.637 134.243L393.263 135.164C393.267 135.165 393.273 135.165 393.281 135.165C393.331 135.164 393.411 135.147 393.494 135.1C393.523 135.084 393.546 135.067 393.564 135.052V133.273ZM367.428 179.469C367.428 179.468 367.428 179.468 367.428 179.468L367.428 179.469ZM445.714 223.823L445.715 223.824L445.714 223.823ZM419.166 161.121C408.998 161.121 400.763 169.354 400.763 179.5C400.763 189.646 408.998 197.879 419.166 197.879C429.334 197.879 437.568 189.646 437.568 179.5C437.568 169.354 429.334 161.121 419.166 161.121ZM390.763 179.5C390.763 163.822 403.484 151.121 419.166 151.121C434.847 151.121 447.568 163.822 447.568 179.5C447.568 195.178 434.847 207.879 419.166 207.879C403.484 207.879 390.763 195.178 390.763 179.5Z" fill="#05060F"/>
<path fill-rule="evenodd" clip-rule="evenodd" d="M341.094 538.765C341.514 538.887 342.268 538.976 344.246 538.81C344.731 538.769 345.256 538.675 345.831 538.525C356.898 535.63 371.749 531.892 371.947 531.842L419.972 519.69C421.895 519.204 423.65 518.207 425.052 516.804L567.013 374.843C571.309 370.548 571.309 363.583 567.013 359.287L517.516 309.79C513.22 305.494 506.255 305.494 501.959 309.79L359.998 451.75C358.596 453.153 357.599 454.908 357.113 456.83L345.003 504.69C344.983 504.77 344.965 504.841 344.948 504.918C344.553 506.633 341.08 521.685 338.641 531.358C338.504 531.901 338.41 532.431 338.359 532.949C338.142 535.142 338.179 535.758 338.258 536.084C338.258 536.084 338.259 536.089 338.26 536.091C338.272 536.155 338.339 536.492 339.325 537.478C340.348 538.502 340.823 538.686 341.094 538.765Z" fill="#FEDFC1"/>
<path d="M425.307 522.49L353.182 450.365L498.139 305.408C504.388 299.16 514.518 299.16 520.767 305.408L570.264 354.905C576.512 361.154 576.512 371.284 570.264 377.533L425.307 522.49Z" fill="#937AFF"/>
<path d="M390.238 487.231L354.175 451.169L499.132 306.212C505.381 299.964 515.511 299.964 521.76 306.212L546.508 330.961L390.238 487.231Z" fill="#5627FF"/>
<path fill-rule="evenodd" clip-rule="evenodd" d="M341.094 538.765C341.514 538.887 342.268 538.976 344.246 538.81C344.731 538.769 345.256 538.675 345.831 538.525C356.898 535.63 371.749 531.892 371.947 531.842L419.972 519.69C421.895 519.204 423.65 518.206 425.052 516.804L567.013 374.843C571.309 370.548 571.309 363.583 567.013 359.287L517.516 309.79C513.22 305.494 506.255 305.494 501.959 309.79L359.998 451.75C358.596 453.153 357.599 454.908 357.113 456.83L345.003 504.69C344.983 504.77 344.965 504.841 344.948 504.918C344.553 506.633 341.08 521.685 338.641 531.358C338.504 531.901 338.41 532.431 338.359 532.949C338.142 535.142 338.179 535.758 338.258 536.084C338.259 536.086 338.259 536.089 338.26 536.091C338.272 536.155 338.339 536.492 339.325 537.478C340.348 538.502 340.823 538.686 341.094 538.765ZM338.293 548.364C335.855 547.653 333.977 546.273 332.254 544.549C330.527 542.822 329.144 540.942 328.538 538.432C328.001 536.208 328.214 533.926 328.407 531.967C328.51 530.918 328.696 529.898 328.944 528.913C331.354 519.357 334.804 504.406 335.203 502.674C335.237 502.523 335.271 502.383 335.308 502.237L347.418 454.377C348.347 450.707 350.25 447.356 352.927 444.679L494.888 302.718C503.089 294.517 516.386 294.517 524.587 302.718L574.084 352.216C582.285 360.417 582.285 373.713 574.084 381.914L432.123 523.875C429.446 526.552 426.095 528.456 422.425 529.384L374.404 541.535L374.388 541.539C374.186 541.59 359.378 545.318 348.361 548.2C347.34 548.467 346.241 548.678 345.083 548.775C342.89 548.959 340.58 549.032 338.293 548.364Z" fill="#05060F"/>
<path fill-rule="evenodd" clip-rule="evenodd" d="M359.934 450.78L427.11 517.955L420.039 525.026L352.863 457.851L359.934 450.78Z" fill="#05060F"/>
<path fill-rule="evenodd" clip-rule="evenodd" d="M546.338 337.737L393.538 490.538L386.467 483.467L539.267 330.666L546.338 337.737Z" fill="#05060F"/>
<path fill-rule="evenodd" clip-rule="evenodd" d="M226.678 253.037C190.248 253.056 153.067 281.986 153.045 324.727C153.032 350.906 169.405 369.766 181.813 380.381C189.46 386.923 195.295 396.539 195.292 402.806L195.308 410.436C195.313 412.988 197.381 415.052 199.93 415.051L254.069 415.024C256.619 415.022 258.688 412.956 258.696 410.405L258.72 402.774C258.723 396.507 265.107 386.869 272.762 380.235C285.048 369.587 301.032 350.797 301.045 324.652C301.068 279.796 262.71 253.019 226.678 253.037Z" fill="#F8DB46"/>
<path fill-rule="evenodd" clip-rule="evenodd" d="M185.292 402.836L185.292 402.811C185.292 402.33 184.881 400.226 182.856 396.865C180.986 393.764 178.308 390.549 175.309 387.983L181.527 380.716L175.309 387.983C162.097 376.681 143.03 355.289 143.046 324.731C143.07 275.581 185.662 243.058 226.684 243.037C266.919 243.017 311.071 273.035 311.046 324.647C311.03 355.088 292.447 376.402 279.307 387.789C276.19 390.491 273.327 393.823 271.313 396.995C270.313 398.57 269.614 399.964 269.186 401.089C268.774 402.17 268.726 402.707 268.721 402.765C268.721 402.771 268.721 402.772 268.721 402.769L268.721 402.795L268.697 410.426C268.671 418.483 262.134 425.019 254.064 425.023L199.926 425.051C191.856 425.055 185.325 418.524 185.308 410.467L185.292 402.836ZM195.292 402.806C195.295 396.539 189.46 386.923 181.814 380.381C169.405 369.766 153.032 350.906 153.046 324.726C153.067 281.986 190.248 253.055 226.679 253.037C262.71 253.019 301.068 279.796 301.046 324.652C301.032 350.797 285.048 369.587 272.762 380.235C265.107 386.869 258.724 396.507 258.721 402.774L258.697 410.405C258.689 412.956 256.619 415.022 254.069 415.023L199.931 415.051C197.381 415.052 195.313 412.988 195.308 410.436L195.292 402.806Z" fill="#05060F"/>
<path d="M198.8 442.051C197.253 442.052 195.998 443.297 195.994 444.833L195.984 449.417C195.957 459.7 204.335 468.049 214.688 468.043L241.262 468.03C251.615 468.025 260.001 459.667 259.984 449.384L259.977 444.801C259.975 443.265 258.721 442.021 257.174 442.022L198.8 442.051Z" fill="#937AFF"/>
<path fill-rule="evenodd" clip-rule="evenodd" d="M185.995 444.82C186.011 437.704 191.807 432.055 198.806 432.051L257.179 432.022C264.178 432.018 269.968 437.662 269.978 444.777L269.984 449.357C269.984 449.358 269.984 449.359 269.984 449.36C270.009 465.231 257.083 478.022 241.257 478.03L214.683 478.043C198.857 478.051 185.944 465.273 185.984 449.403C185.984 449.402 185.984 449.401 185.984 449.4L185.995 444.82ZM195.984 449.416C195.957 459.7 204.335 468.048 214.688 468.043L241.262 468.03C251.615 468.025 260.002 459.667 259.984 449.384L259.978 444.801C259.975 443.265 258.721 442.021 257.174 442.022L198.801 442.051C197.254 442.052 195.998 443.297 195.995 444.833L195.984 449.416Z" fill="#05060F"/>
<path fill-rule="evenodd" clip-rule="evenodd" d="M232.026 359.038L221.026 359.044L220.998 415.044L231.998 415.038L232.026 359.038ZM211.031 349.049L210.993 425.049L241.993 425.033L242.031 349.033L211.031 349.049Z" fill="#05060F"/>
<path fill-rule="evenodd" clip-rule="evenodd" d="M255.039 344.026L255.039 343.526C255.041 340.488 252.579 338.027 249.542 338.028C246.504 338.03 244.041 340.494 244.039 343.531L244.036 350.031L249.036 350.029C252.35 350.027 255.037 347.339 255.039 344.026ZM249.547 328.028C240.986 328.033 234.043 334.976 234.039 343.536L234.031 360.036L249.031 360.029C257.867 360.024 265.034 352.857 265.039 344.021L265.039 343.521C265.043 334.96 258.107 328.024 249.547 328.028Z" fill="#05060F"/>
<path fill-rule="evenodd" clip-rule="evenodd" d="M199.039 344.054L199.039 343.554C199.041 340.517 201.504 338.053 204.542 338.052C207.579 338.05 210.041 340.511 210.039 343.549L210.036 350.049L205.036 350.051C201.722 350.053 199.037 347.368 199.039 344.054ZM204.547 328.052C213.107 328.047 220.043 334.984 220.039 343.544L220.031 360.044L205.031 360.051C196.194 360.056 189.034 352.896 189.039 344.059L189.039 343.559C189.043 334.999 195.986 328.056 204.547 328.052Z" fill="#05060F"/>
<path d="M150 138C150 146.284 143.284 153 135 153C126.716 153 120 146.284 120 138C120 129.716 126.716 123 135 123C143.284 123 150 129.716 150 138Z" fill="#DB2323"/>
<path d="M204 138C204 146.284 197.284 153 189 153C180.716 153 174 146.284 174 138C174 129.716 180.716 123 189 123C197.284 123 204 129.716 204 138Z" fill="#F8DB46"/>
<path d="M258 138C258 146.284 251.284 153 243 153C234.716 153 228 146.284 228 138C228 129.716 234.716 123 243 123C251.284 123 258 129.716 258 138Z" fill="#12B823"/>
<path fill-rule="evenodd" clip-rule="evenodd" d="M115 138C115 126.954 123.954 118 135 118C146.046 118 155 126.954 155 138C155 149.046 146.046 158 135 158C123.954 158 115 149.046 115 138ZM135 128C129.477 128 125 132.477 125 138C125 143.523 129.477 148 135 148C140.523 148 145 143.523 145 138C145 132.477 140.523 128 135 128Z" fill="#05060F"/>
<path fill-rule="evenodd" clip-rule="evenodd" d="M169 138C169 126.954 177.954 118 189 118C200.046 118 209 126.954 209 138C209 149.046 200.046 158 189 158C177.954 158 169 149.046 169 138ZM189 128C183.477 128 179 132.477 179 138C179 143.523 183.477 148 189 148C194.523 148 199 143.523 199 138C199 132.477 194.523 128 189 128Z" fill="#05060F"/>
<path fill-rule="evenodd" clip-rule="evenodd" d="M243 118C231.954 118 223 126.954 223 138C223 149.046 231.954 158 243 158C254.046 158 263 149.046 263 138C263 126.954 254.046 118 243 118ZM233 138C233 132.477 237.477 128 243 128C248.523 128 253 132.477 253 138C253 143.523 248.523 148 243 148C237.477 148 233 143.523 233 138Z" fill="#05060F"/>
<path fill-rule="evenodd" clip-rule="evenodd" d="M227.295 186C230.056 186 232.292 188.239 232.289 191L232.263 215C232.26 217.761 230.019 220 227.257 220C224.496 220 222.26 217.761 222.263 215L222.289 191C222.292 188.239 224.533 186 227.295 186ZM314.526 215.928C316.496 217.861 316.525 221.027 314.591 222.999L295.465 242.499C293.53 244.472 290.364 244.504 288.394 242.572C286.423 240.639 286.395 237.473 288.329 235.501L307.455 216.001C309.39 214.028 312.556 213.996 314.526 215.928ZM138.525 218.178C140.5 216.246 143.666 216.278 145.596 218.251L162.477 235.501C164.407 237.473 164.371 240.639 162.396 242.572C160.422 244.504 157.256 244.472 155.326 242.499L138.445 225.249C136.515 223.277 136.551 220.111 138.525 218.178Z" fill="#05060F"/>
<path d="M370 534.5L343.5 508L335 519.5L331 531.5L333.5 539.5L338.5 544.5L348 543L370 534.5Z" fill="black"/>
</svg>
