<svg width="600" height="600" viewBox="0 0 600 600" fill="none" xmlns="http://www.w3.org/2000/svg">
<path d="M32 340C32 328.954 40.9543 320 52 320H300V500H44C37.3726 500 32 494.627 32 488V340Z" fill="#2187FF"/>
<path d="M66 284C66 277.373 71.3726 272 78 272H128C134.627 272 140 277.373 140 284V320H66V284Z" fill="#1775E5"/>
<path fill-rule="evenodd" clip-rule="evenodd" d="M78 267C68.6112 267 61 274.611 61 284V315H52C38.1929 315 27 326.193 27 340V488C27 497.389 34.6112 505 44 505H305V315H145V284C145 274.611 137.389 267 128 267H78ZM135 315V284C135 280.134 131.866 277 128 277H78C74.134 277 71 280.134 71 284V315H135ZM52 325C43.7157 325 37 331.716 37 340V488C37 491.866 40.134 495 44 495H295V325H52Z" fill="#05060F"/>
<path d="M165 160C165 148.954 173.954 140 185 140H415C426.046 140 435 148.954 435 160V320H165V160Z" fill="#F8DB46"/>
<path d="M216 92C209.373 92 204 97.3726 204 104V140H280V104C280 97.3726 274.627 92 268 92H216Z" fill="#F5C418"/>
<path d="M332 92C325.373 92 320 97.3726 320 104V140H396V104C396 97.3726 390.627 92 384 92H332Z" fill="#F5C418"/>
<path fill-rule="evenodd" clip-rule="evenodd" d="M199 104C199 94.6112 206.611 87 216 87H268C277.389 87 285 94.6112 285 104V135H315V104C315 94.6112 322.611 87 332 87H384C393.389 87 401 94.6112 401 104V135H415C428.807 135 440 146.193 440 160V325H160V160C160 146.193 171.193 135 185 135H199V104ZM185 145C176.716 145 170 151.716 170 160V315H430V160C430 151.716 423.284 145 415 145H185ZM391 135V104C391 100.134 387.866 97 384 97H332C328.134 97 325 100.134 325 104V135H391ZM275 104V135H209V104C209 100.134 212.134 97 216 97H268C271.866 97 275 100.134 275 104Z" fill="#05060F"/>
<path d="M298 320H548C559.046 320 568 328.954 568 340V488C568 494.627 562.627 500 556 500H298V320Z" fill="#DB2323"/>
<path d="M460 284C460 277.373 465.373 272 472 272H522C528.627 272 534 277.373 534 284V320H460V284Z" fill="#B81616"/>
<path fill-rule="evenodd" clip-rule="evenodd" d="M472 267C462.611 267 455 274.611 455 284V315H295V505H556C565.389 505 573 497.389 573 488V340C573 326.193 561.807 315 548 315H539V284C539 274.611 531.389 267 522 267H472ZM529 315V284C529 280.134 525.866 277 522 277H472C468.134 277 465 280.134 465 284V315H529ZM305 325V495H556C559.866 495 563 491.866 563 488V340C563 331.716 556.284 325 548 325H305Z" fill="#05060F"/>
</svg>
