<svg width="600" height="600" viewBox="0 0 600 600" fill="none" xmlns="http://www.w3.org/2000/svg">
<path d="M535.426 315C535.426 444.787 430.213 550 300.426 550C170.639 550 65.4258 444.787 65.4258 315C65.4258 185.213 170.639 80 300.426 80C430.213 80 535.426 185.213 535.426 315Z" fill="white"/>
<path fill-rule="evenodd" clip-rule="evenodd" d="M300.426 541.696C425.626 541.696 527.121 440.201 527.121 315C527.121 189.799 425.626 88.3043 300.426 88.3043C175.225 88.3043 73.7301 189.799 73.7301 315C73.7301 440.201 175.225 541.696 300.426 541.696ZM300.426 552C431.317 552 537.426 445.891 537.426 315C537.426 184.109 431.317 78 300.426 78C169.534 78 63.4258 184.109 63.4258 315C63.4258 445.891 169.534 552 300.426 552Z" fill="#05060F"/>
<path fill-rule="evenodd" clip-rule="evenodd" d="M366.353 104.962C366.353 141.392 336.829 170.925 300.409 170.925C263.989 170.925 234.464 141.392 234.464 104.962C234.464 68.5324 263.989 39 300.409 39C336.829 39 366.353 68.5324 366.353 104.962ZM299.986 197.34C327.613 199.321 324 198.039 370.729 202.445C417.458 206.851 434.925 241.761 441.799 274.197C446.378 295.808 458.386 359.243 465.892 399.18C469.228 416.93 455.6 433.294 437.539 433.294C424.664 433.294 413.346 424.767 409.794 412.392C406.242 400.017 388.5 336.5 374.592 289.737C378 376 385.454 551.611 385.454 560.287C385.454 568.963 382.008 577.284 375.875 583.419C369.742 589.553 361.423 593 352.749 593C344.076 593 335.757 589.553 329.624 583.419C323.491 577.284 320.045 568.963 320.045 560.287C320.045 551.611 308.755 393.313 308.755 393.313C308.755 393.313 298.789 392.703 292.451 393.313C286 449 278.627 551.611 278.627 560.287C278.627 568.963 275.181 577.284 269.048 583.419C262.914 589.553 254.596 593 245.922 593C237.249 593 228.93 589.553 222.797 583.419C216.664 577.284 213.218 568.963 213.218 560.287C213.218 551.611 213.218 314.5 213.218 268.028C169 259 98.396 246.583 73.6794 241.761C48.9628 236.939 46.4258 220.734 46.4258 208.707C46.4258 201.476 49.2971 194.543 54.4082 189.43C59.5192 184.318 66.4513 181.446 73.6794 181.446C80.9075 181.446 211.617 191.004 299.986 197.34Z" fill="#15D6CF"/>
<path fill-rule="evenodd" clip-rule="evenodd" d="M229.464 104.962C229.464 65.7722 261.226 34 300.409 34C339.592 34 371.353 65.7722 371.353 104.962C371.353 144.153 339.592 175.925 300.409 175.925C261.226 175.925 229.464 144.153 229.464 104.962ZM300.409 44C266.751 44 239.464 71.2925 239.464 104.962C239.464 138.632 266.751 165.925 300.409 165.925C334.066 165.925 361.353 138.632 361.353 104.962C361.353 71.2925 334.066 44 300.409 44ZM50.8722 185.895C56.9208 179.845 65.1248 176.446 73.6794 176.446C77.5297 176.446 112.326 178.862 156.76 182.029C183.063 183.905 212.895 186.055 242.003 188.154C262.279 189.616 282.205 191.052 300.343 192.353C309.789 193.03 314.693 193.238 319.341 193.436C328.069 193.806 335.893 194.138 371.198 197.467C399.408 200.127 416.832 210.499 427.959 225.033C438.86 239.271 443.259 256.968 446.69 273.161C451.285 294.843 463.307 358.353 470.806 398.256C474.722 419.097 458.719 438.294 437.539 438.294C422.434 438.294 409.155 428.29 404.988 413.771L381.255 331.08L390.45 560.086C390.452 560.153 390.454 560.22 390.454 560.287C390.454 570.288 386.482 579.881 379.411 586.954C372.34 594.026 362.75 598 352.749 598C342.749 598 333.159 594.026 326.088 586.954C319.058 579.922 315.092 570.4 315.046 560.462L304.082 398.313H297.054L283.626 560.501C283.57 570.425 279.604 579.931 272.584 586.954C265.513 594.026 255.923 598 245.922 598C235.922 598 226.332 594.026 219.261 586.954C212.19 579.881 208.218 570.288 208.218 560.287V272.18L207.317 272.012C204.129 271.416 199.547 270.56 193.971 269.517C182.82 267.431 167.694 264.599 151.796 261.617C120.01 255.655 85.1027 249.084 72.722 246.669C59.269 244.044 51.0995 238.12 46.5054 230.524C42.0537 223.162 41.4258 214.962 41.4258 208.707C41.4258 200.151 44.8236 191.945 50.8722 185.895ZM213.218 268.028L214.136 263.113C216.502 263.555 218.218 265.62 218.218 268.028V560.287C218.218 567.637 221.137 574.686 226.333 579.883C231.528 585.081 238.575 588 245.922 588C253.269 588 260.316 585.081 265.512 579.883C270.707 574.686 273.627 567.637 273.627 560.287C273.627 560.149 273.632 560.011 273.644 559.874L287.468 392.901C287.683 390.308 289.85 388.313 292.451 388.313H308.755C311.386 388.313 313.567 390.351 313.744 392.976L325.034 559.949C325.041 560.062 325.045 560.174 325.045 560.287C325.045 567.637 327.964 574.686 333.16 579.883C338.356 585.081 345.402 588 352.749 588C360.097 588 367.143 585.081 372.339 579.883C377.512 574.709 380.428 567.699 380.454 560.383L369.596 289.938C369.494 287.409 371.298 285.203 373.796 284.801C376.294 284.398 378.699 285.925 379.398 288.358L414.6 411.013C417.537 421.244 426.894 428.294 437.539 428.294C452.481 428.294 463.733 414.763 460.978 400.103C453.466 360.134 441.472 296.773 436.907 275.234C433.465 258.99 429.4 243.364 420.019 231.112C410.864 219.154 396.191 209.868 370.259 207.423C335.139 204.111 327.667 203.798 319.108 203.439C314.465 203.244 309.501 203.035 299.628 202.327C281.477 201.026 261.543 199.589 241.261 198.126C212.163 196.029 182.347 193.879 156.049 192.004C111.229 188.809 77.0572 186.446 73.6794 186.446C67.7778 186.446 62.1177 188.791 57.9442 192.965C53.7707 197.14 51.4258 202.802 51.4258 208.707C51.4258 214.479 52.0664 220.395 55.0623 225.349C57.916 230.067 63.3732 234.656 74.6368 236.854C86.9726 239.26 121.835 245.823 153.639 251.789C169.536 254.77 184.66 257.601 195.81 259.687C201.385 260.73 205.967 261.586 209.154 262.182L214.131 263.112L214.135 263.113C214.135 263.113 214.136 263.113 213.218 268.028Z" fill="#05060F"/>
<path d="M453.004 411.952C453.517 408.24 457.855 403.979 462.732 404.369C467.609 404.759 471.179 409.653 470.667 413.364L447.86 578.482C447.347 582.194 442.81 586.842 437.933 586.452C433.056 586.062 429.684 580.781 430.197 577.07L453.004 411.952Z" fill="#F8DB46"/>
<path fill-rule="evenodd" clip-rule="evenodd" d="M449.957 399.213C453.434 396.286 458.428 394.01 464.1 394.463C469.668 394.909 473.965 397.833 476.65 401.074C479.211 404.166 481.367 408.862 480.635 414.161L457.828 579.28C457.148 584.2 454.189 588.467 450.953 591.29C447.588 594.226 442.498 596.833 436.565 596.358C430.681 595.887 426.395 592.578 423.867 589.241C421.442 586.039 419.528 581.35 420.229 576.273L443.036 411.154C443.714 406.252 446.618 402.025 449.957 399.213ZM462.732 404.369C457.855 403.979 453.517 408.24 453.005 411.952L430.197 577.07C429.685 580.781 433.056 586.062 437.933 586.452C442.811 586.842 447.347 582.194 447.86 578.482L470.667 413.364C471.18 409.653 467.61 404.759 462.732 404.369Z" fill="#05060F"/>
<path fill-rule="evenodd" clip-rule="evenodd" d="M347.828 28.2348C336.588 20.2185 320.777 15.6979 298.704 16.0157L298.668 16.0162H298.632C277.642 16.0162 262.801 20.7201 252.252 28.6673C241.714 36.6052 234.882 48.212 230.733 63.1314C229.438 67.79 229.001 72.7724 229.001 77.9649C229.002 82.8312 229.001 86.5684 229.001 90.6233C229 94.7528 229 99.2119 229 105.529C229 108.291 226.762 110.529 224 110.529C221.239 110.529 219 108.291 219 105.529C219 99.2052 219 94.7482 219.001 90.6212C219.001 86.5694 219.002 82.8358 219.001 77.9657C219.001 72.2592 219.474 66.294 221.099 60.4521C225.649 44.0905 233.451 30.3095 246.235 20.6799C258.999 11.0647 276.155 6.02157 298.596 6.01618C322.022 5.6841 340.136 10.4659 353.634 20.0933C367.187 29.7594 375.495 43.8862 380.088 61.0591C381.578 66.6312 382 72.3011 382 77.7129V108C382 110.761 379.761 113 377 113C374.239 113 372 110.761 372 108V77.7129C372 72.7813 371.609 68.0627 370.427 63.6426C366.267 48.0856 359.02 36.2174 347.828 28.2348Z" fill="#05060F"/>
<path d="M203.56 85.6481C203.56 68.7114 217.29 54.9814 234.226 54.9814C242.695 54.9814 249.56 61.8464 249.56 70.3148C249.56 78.7831 249.56 116.18 249.56 124.648C249.56 133.116 242.695 139.981 234.226 139.981C217.29 139.981 203.56 126.252 203.56 109.315C203.56 92.378 203.56 102.585 203.56 85.6481Z" fill="#5627FF"/>
<path d="M397 109.333C397 126.27 383.27 140 366.333 140C357.865 140 351 133.135 351 124.667C351 116.198 351 78.8017 351 70.3333C351 61.865 357.865 55 366.333 55C383.27 55 397 68.7299 397 85.6667C397 102.603 397 92.3966 397 109.333Z" fill="#5627FF"/>
<path fill-rule="evenodd" clip-rule="evenodd" d="M198.56 85.6481C198.56 65.95 214.528 49.9814 234.226 49.9814C245.456 49.9814 254.56 59.085 254.56 70.3148V124.648C254.56 135.878 245.456 144.981 234.226 144.981C214.528 144.981 198.56 129.013 198.56 109.315V85.6481ZM234.226 59.9814C220.051 59.9814 208.56 71.4728 208.56 85.6481V109.315C208.56 123.49 220.051 134.981 234.226 134.981C239.933 134.981 244.56 130.355 244.56 124.648V70.3148C244.56 64.6078 239.933 59.9814 234.226 59.9814Z" fill="#05060F"/>
<path fill-rule="evenodd" clip-rule="evenodd" d="M402.313 109.565C402.313 129.263 386.344 145.231 366.646 145.231C355.417 145.231 346.313 136.128 346.313 124.898L346.313 70.5648C346.313 59.335 355.417 50.2314 366.646 50.2314C386.344 50.2314 402.313 66.2 402.313 85.8981L402.313 109.565ZM366.646 135.231C380.822 135.231 392.313 123.74 392.313 109.565L392.313 85.8981C392.313 71.7228 380.822 60.2314 366.646 60.2314C360.939 60.2314 356.313 64.8578 356.313 70.5648L356.313 124.898C356.313 130.605 360.939 135.231 366.646 135.231Z" fill="#05060F"/>
</svg>
